<svg xmlns="http://www.w3.org/2000/svg" width="84" height="72" viewBox="0 0 760 654" fill="none">
    <g clip-path="url(#clip0_5_21396)">
        <path d="M312.912 452.409C289.517 449.169 234.451 445.57 207.458 445.21C194.141 430.454 171.826 408.859 162.469 401.301C153.111 393.743 143.033 396.622 127.557 409.939C121.798 414.978 94.8051 443.411 78.2491 472.564C70.691 485.88 75.3698 493.079 87.2469 504.236C96.2447 512.874 128.997 538.068 145.913 548.865C157.07 556.063 166.068 559.302 188.022 564.701C209.977 570.1 265.403 579.458 265.403 579.458L312.912 452.049V452.409Z" fill="#CFD1E6"/>
        <path d="M193.777 430.814C180.461 417.137 170.743 407.78 162.465 401.661C160.665 400.221 158.506 399.142 156.346 398.422C163.905 401.661 171.103 410.659 166.784 429.014C165.344 435.133 165.344 435.853 170.743 441.611C176.142 447.37 202.415 467.885 202.415 467.885C202.415 467.885 200.616 438.372 193.057 430.814H193.777Z" fill="#E6E8FF"/>
        <path d="M195.578 492.359L207.095 519.713C209.614 525.471 215.373 528.711 221.132 527.991L282.676 521.152L257.843 578.378C242.006 575.499 204.936 569.021 187.66 565.062C165.705 559.663 157.067 556.424 145.55 549.226C128.274 538.068 95.8822 513.234 86.8844 504.596C75.0073 493.439 70.3284 486.241 77.8866 472.924C80.0461 468.605 82.5654 464.646 85.4447 460.687L127.554 437.293L152.748 417.858C153.828 424.696 152.748 431.894 148.789 439.812C144.83 447.73 148.429 442.332 149.149 443.411L185.14 478.323C189.459 482.282 192.698 487.321 194.858 492.719L195.578 492.359Z" fill="#60e0d7"/>
        <path d="M150.589 552.105C150.589 552.105 150.23 552.106 149.87 551.746C149.87 551.746 150.23 551.746 150.589 552.105Z" fill="#FE72DD"/>
        <path d="M188.019 565.061C204.935 569.02 242.366 575.859 258.202 578.378L262.161 567.581C229.409 565.421 179.741 565.781 155.627 554.624C163.545 558.583 172.543 561.462 188.379 565.061H188.019Z" fill="#FE72DD"/>
        <path d="M310.032 452.048C280.159 452.048 224.013 451.328 200.258 451.688C181.543 423.255 170.746 409.579 164.627 403.1C174.705 411.738 195.22 431.533 207.457 445.21C233.37 445.21 285.198 448.809 310.032 452.048Z" fill="#E6E8FF"/>
        <path d="M97.3214 431.534C116.397 407.06 140.871 393.383 152.388 401.301C163.905 409.219 158.147 435.493 139.071 459.967C119.996 484.441 95.5218 498.117 84.0047 490.199C72.4875 482.281 78.2461 456.008 97.3214 431.534Z" fill="black"/>
        <path d="M138.353 449.529C148.43 435.493 154.909 424.335 153.109 413.538C151.669 402.741 144.831 387.624 140.152 376.827C137.993 353.793 136.193 340.836 133.674 332.198C130.435 322.12 126.475 316.722 117.118 317.441C107.76 318.161 103.441 326.079 101.642 352.353C93.0037 346.234 71.7689 331.838 57.7323 325.36C48.0147 321.041 36.8574 320.321 25.7002 335.077C19.2218 343.355 2.30589 371.428 1.22616 385.105C0.14642 398.782 5.5451 414.258 41.8962 439.092C47.2949 457.807 61.3314 475.443 84.0059 483.721C101.282 490.199 118.557 476.882 138.353 449.529Z" fill="url(#paint0_linear_5_21396)"/>
        <path d="M211.775 465.366C217.894 477.243 223.652 513.235 223.652 513.235C223.652 513.235 233.73 498.478 236.249 487.321C238.768 476.883 235.889 475.444 218.613 466.086C201.338 456.728 209.976 462.487 211.415 465.366H211.775Z" fill="#42c5cf"/>
        <path d="M101.283 426.134C93.0047 415.697 94.0844 395.541 95.1642 386.184C96.6038 375.386 96.9637 375.746 95.1642 375.386C93.3646 375.026 73.5695 400.22 63.8518 416.056C54.1342 431.893 56.2937 432.972 65.6514 436.211C75.0091 439.451 89.7655 441.61 99.4831 440.89C109.201 440.171 111 439.091 101.283 426.134Z" fill="#0054c5"/>
        <path d="M12.7444 355.232C12.7444 354.872 13.1043 354.512 13.4642 354.152C13.4642 354.512 13.1043 354.872 12.7444 355.232Z" fill="#2bb5eb"/>
        <path d="M25.3397 335.078C23.9 337.238 21.7406 340.477 19.2212 344.436C32.5379 323.561 49.0939 322.841 100.921 362.792L101.641 352.354C93.0031 346.236 71.7683 331.839 57.7318 325.361C48.0141 321.042 36.8569 320.322 25.6996 335.078H25.3397Z" fill="#D4D7FF"/>
        <path d="M124.316 318.522C122.157 317.442 119.998 317.082 116.758 317.442C107.761 318.162 103.082 326.08 101.282 352.354C100.202 364.95 100.202 376.108 100.202 376.108C103.802 353.433 107.761 314.923 124.316 318.522Z" fill="#D4D7FF"/>
        <path d="M152.028 408.86C149.508 398.782 144.11 386.185 139.791 376.827C137.631 353.793 135.832 340.836 133.312 332.198C131.153 325.36 128.633 320.681 123.955 318.522C133.312 323.56 135.472 364.95 135.472 374.308C142.31 386.185 149.868 402.381 151.668 408.86H152.028Z" fill="#FE72DD"/>
        <path d="M567.726 479.762C603.358 489.48 636.11 513.954 654.825 564.701C699.454 601.052 686.137 637.763 675.7 653.599H520.578L567.726 479.762Z" fill="#36b9c5"/>
        <path d="M685.777 626.966C687.937 609.331 682.538 587.016 655.185 564.702C640.788 526.191 618.833 502.797 593.64 489.84L596.519 494.519C622.433 515.034 633.23 544.187 637.189 565.062C664.542 577.299 688.296 602.492 686.137 627.326L685.777 626.966Z" fill="#FD99E9"/>
        <path d="M242.725 653.6C242.725 566.141 280.516 457.448 328.744 418.937L582.842 479.762C597.958 560.022 599.038 653.6 599.038 653.6H242.725Z" fill="#CFD1E6"/>
        <path d="M582.844 479.762L328.746 418.937C318.309 427.215 308.231 439.092 298.873 453.489C284.477 477.243 301.753 510.355 319.028 529.07C370.136 584.856 471.991 623.727 599.04 653.959C599.04 653.959 603.719 561.462 582.844 480.122V479.762Z" fill="#36b9c5"/>
        <path d="M519.141 537.347C519.141 553.183 523.1 567.58 540.375 586.655H552.972L519.141 537.347Z" fill="#0f94b3"/>
        <path d="M567.727 588.096C576.365 564.701 582.843 554.264 592.561 544.906C582.483 547.426 565.567 565.061 559.089 586.656L567.727 588.096Z" fill="#0f94b3"/>
        <path d="M521.659 653.6C505.823 598.893 520.939 585.577 528.138 581.618C535.336 577.659 545.053 577.299 572.767 580.538C623.154 569.021 647.988 581.618 657.706 593.135C677.501 616.529 670.303 641.723 664.184 653.6H521.659Z" fill="#36b9c5"/>
        <path d="M660.225 595.654C659.505 594.934 659.146 593.855 658.426 593.135C648.708 581.618 623.874 569.021 573.487 580.538C545.773 577.299 536.056 578.018 528.857 581.618C521.299 585.577 506.183 598.893 522.379 653.6H596.881C596.881 635.244 592.922 619.408 587.523 606.811C582.124 594.214 582.484 596.374 589.323 594.214C609.838 588.096 650.148 584.857 660.225 595.654Z" fill="#60e0d7"/>
        <path d="M646.909 584.497C632.153 576.579 593.642 577.299 572.767 586.296C561.25 582.697 529.218 576.219 519.141 591.335C522.02 585.936 525.619 583.417 528.138 581.977C535.337 578.378 545.054 577.658 572.767 580.898C609.838 572.62 633.233 576.939 646.549 584.497H646.909Z" fill="#E6E8FF"/>
        <path d="M591.481 638.844C585.363 608.611 564.128 586.656 538.574 588.456C513.021 590.255 513.38 614.37 522.018 644.242C523.098 647.481 524.178 650.721 525.618 653.96H592.921C592.921 649.281 592.561 644.242 591.481 638.844Z" fill="black"/>
        <path d="M567.727 604.292C554.411 591.695 542.174 588.815 524.178 588.815C506.542 588.815 494.305 589.535 481.348 598.533C468.032 607.891 456.874 616.169 450.396 619.768C443.918 623.367 431.681 625.526 429.161 636.684C427.722 643.522 429.161 648.921 432.041 653.6H589.682C589.322 638.483 581.044 616.889 567.727 604.292Z" fill="url(#paint1_linear_5_21396)"/>
        <path d="M242.725 653.6H260.361C258.921 605.372 266.479 515.754 285.554 476.523C259.641 526.551 242.725 594.935 242.725 653.6Z" fill="#E6E8FF"/>
        <path d="M444.276 597.813L427.72 525.111L401.807 521.511L350.339 589.535C344.581 597.453 351.779 608.97 363.296 610.41L422.322 617.968C436.718 619.767 447.156 610.05 444.636 597.813H444.276ZM421.602 585.936C420.162 595.653 407.565 602.492 393.529 601.412C379.492 600.332 369.775 591.694 371.214 581.977C372.654 572.259 385.251 565.421 399.287 566.5C413.324 567.58 423.041 576.218 421.602 585.936Z" fill="#36b9c5"/>
        <path d="M407.208 465.007C407.208 465.007 383.454 556.424 371.577 653.601H398.21C402.169 603.933 412.247 533.39 428.443 466.087L407.208 465.007Z" fill="#00252f"/>
        <path d="M389.929 543.468C385.97 563.263 381.651 588.097 377.692 611.851L402.166 615.81C404.686 594.575 407.925 571.181 411.884 547.067L389.569 543.468H389.929Z" fill="black"/>
        <path d="M412.607 465.366C408.288 484.441 390.652 566.861 380.574 653.6H386.333C391.372 603.932 401.449 533.389 417.645 465.366H412.967H412.607Z" fill="black"/>
        <path d="M412.607 516.113C427.723 503.876 433.122 490.919 434.921 482.282C422.684 475.083 404.689 470.764 387.053 477.603C383.094 489.84 388.853 512.514 388.853 512.514L412.607 516.113Z" fill="black"/>
        <path d="M434.92 581.978L418.364 508.197L392.091 504.597L336.664 569.382C330.546 577.3 339.903 593.856 352.5 594.935L412.606 602.493C420.883 603.573 427.722 600.694 431.681 596.015C435.64 591.336 436.36 587.377 434.92 581.978ZM412.246 569.741C410.806 579.459 397.849 586.657 383.813 585.578C369.776 584.498 359.698 575.5 361.138 565.782C362.578 556.065 375.535 548.867 389.571 549.946C403.608 551.026 413.685 560.024 412.246 569.741Z" fill="black"/>
        <path d="M415.483 532.67L421.961 563.263L431.679 567.222L424.481 535.19L415.483 532.67Z" fill="#D939B7"/>
        <path d="M430.601 577.299L414.045 504.597L388.131 500.998L336.664 569.021C330.905 576.939 338.103 588.456 349.621 589.896L408.646 597.454C416.564 598.534 423.402 595.654 427.721 590.976C432.04 586.297 432.04 582.338 430.961 576.939L430.601 577.299ZM407.926 565.422C406.487 575.139 393.89 581.978 379.853 580.898C365.817 579.818 356.099 571.18 357.539 561.463C358.978 551.745 371.575 544.907 385.612 545.987C399.648 547.066 409.366 555.704 407.926 565.422Z" fill="#00252f"/>
        <path d="M409.725 515.035C424.841 502.798 430.24 489.841 432.04 481.203C419.803 474.005 401.807 469.686 384.171 476.524C380.212 488.761 385.971 511.436 385.971 511.436L409.725 515.035Z" fill="#00252f"/>
        <path d="M390.291 526.191L404.327 527.991L410.806 497.039L396.769 495.239C394.25 494.879 392.45 498.838 390.651 503.877C388.851 508.916 386.332 522.232 390.291 526.191Z" fill="#002743"/>
        <path d="M409.368 503.517L391.372 500.998C391.372 501.717 390.652 502.797 390.292 503.877C389.932 505.317 389.572 506.756 388.853 508.916L407.208 512.155L409.008 503.517H409.368Z" fill="#017ec0"/>
        <path d="M404.329 527.991L410.807 497.039C408.288 496.679 406.488 500.638 404.689 505.677C402.889 510.716 400.37 524.032 404.329 527.991Z" fill="black"/>
        <path d="M420.884 534.109L359.699 539.147L336.664 569.38C335.585 570.46 335.225 571.899 334.865 573.339L360.059 571.18C358.259 568.3 357.179 565.061 357.899 561.822C359.339 552.104 371.936 545.266 385.972 546.346C400.009 547.425 409.726 556.063 408.287 565.781C408.287 566.501 407.927 566.861 407.567 567.58L428.082 565.781L420.884 534.109Z" fill="#3A2B91"/>
        <path d="M540.016 53.9869C507.624 50.0278 480.271 55.4265 456.876 63.3446L447.879 87.8186C558.012 141.805 594.003 112.293 593.643 93.9371C593.283 73.0622 571.328 57.586 540.376 53.9869H540.016Z" fill="#35ED7E"/>
        <path d="M540.014 53.9864C511.941 50.3873 487.467 53.9864 466.232 60.4648L468.392 62.6243C500.424 53.6265 543.613 53.2666 560.529 61.5446L561.969 59.3851C555.491 56.8657 548.292 55.4261 540.374 54.3463L540.014 53.9864Z" fill="#B0FFD0"/>
        <path d="M562.329 59.0247L560.53 60.8243C591.122 74.8608 596.521 101.134 582.484 110.852C590.402 105.813 594.002 98.9749 593.642 93.5763C593.282 78.1 581.045 65.863 562.329 58.6648V59.0247Z" fill="#FD99E9"/>
        <path d="M601.92 16.556C595.801 16.196 584.284 13.6767 561.61 34.5516C538.935 55.4264 498.265 107.974 471.272 107.614H496.106C526.698 101.135 560.89 56.1463 600.48 32.3921C615.237 23.3943 608.039 16.9159 602.28 16.196L601.92 16.556Z" fill="#008046"/>
        <path d="M429.519 23.0343C392.448 -6.83843 373.013 -3.59923 357.177 10.4373C329.104 35.2713 323.705 69.8228 338.822 86.0188C356.457 104.734 403.966 104.374 447.515 87.8184C523.096 124.889 563.766 122.37 581.762 111.573C541.812 130.288 462.271 49.3078 429.519 23.0343Z" fill="#12A459"/>
        <path d="M345.303 91.0584C364.738 103.655 402.889 102.936 439.6 91.0584V90.3386C439.24 90.3386 425.563 90.3386 425.563 90.3386C403.249 93.5778 365.458 102.576 345.303 91.4184V91.0584Z" fill="#17D171"/>
        <path d="M447.876 87.8183C421.602 74.5015 404.686 62.2645 394.969 53.9866C391.729 51.4672 386.331 46.7883 383.451 47.8681C379.852 48.9478 383.092 54.7064 385.611 57.9456C396.048 71.6223 412.604 85.2989 437.438 97.176C462.632 109.413 482.787 109.773 496.104 107.613C482.067 102.935 466.231 96.4562 448.236 87.4584L447.876 87.8183Z" fill="#008046"/>
        <path d="M266.121 263.816L250.645 378.988C248.485 394.824 233.729 406.341 217.533 403.822C159.947 394.824 151.309 370.35 159.587 308.085C167.865 246.18 183.341 224.585 240.567 231.064C256.763 232.863 267.921 247.62 265.761 263.456L266.121 263.816Z" fill="#109ce6"/>
        <g style="mix-blend-mode:multiply" opacity="0.3">
            <path d="M251.006 378.266V379.346C248.846 395.182 233.73 406.699 217.894 404.18C175.424 397.701 159.588 382.585 157.428 350.193C163.187 374.307 180.823 386.544 220.053 393.023C233.37 395.182 245.967 389.064 251.006 378.626V378.266Z" fill="#005fc5"/>
        </g>
        <path d="M228.69 233.583V230.344C185.861 228.545 170.385 246.9 162.107 292.969C171.464 234.303 209.255 234.663 228.69 233.583Z" fill="#E6E8FF"/>
        <path d="M249.566 279.653L241.648 350.915C240.569 360.633 231.571 367.831 221.493 366.752C185.862 362.073 180.103 346.956 184.422 308.446C188.741 270.295 198.099 256.618 233.37 259.858C243.448 260.578 250.646 269.575 249.566 279.653Z" fill="#48ceee"/>
        <path d="M710.611 345.875C694.415 482.642 673.9 523.312 434.559 494.879C195.217 466.446 184.78 422.177 201.336 285.41C217.532 148.644 238.047 107.974 477.388 136.407C716.729 164.84 727.167 209.109 710.611 345.875Z" fill="url(#paint2_linear_5_21396)"/>
        <g style="mix-blend-mode:multiply" opacity="0.3">
            <path d="M409.724 481.561C321.546 471.124 265.76 458.167 230.848 439.092C263.96 466.085 325.505 482.281 434.558 495.238C655.904 521.512 690.096 488.76 706.652 375.027L671.74 371.068C654.824 476.163 618.113 506.395 409.364 481.561H409.724Z" fill="#005fc5"/>
        </g>
        <g style="mix-blend-mode:multiply" opacity="0.2">
            <path d="M604.436 158.361C687.216 188.953 688.655 238.981 677.138 333.998C675.698 347.315 673.899 359.552 672.099 371.069L707.011 375.028C708.45 366.03 709.53 356.312 710.97 345.875C723.567 239.341 720.327 188.593 604.436 158.361Z" fill="#005fc5"/>
        </g>
        <path d="M695.497 427.934L682.18 428.654C676.421 445.93 661.665 482.641 632.512 493.798C666.704 482.281 684.699 461.046 695.497 428.294V427.934Z" fill="#FE72DD"/>
        <path d="M601.558 157.64C684.337 178.515 706.292 222.425 697.294 305.204L715.29 298.366C719.609 222.784 700.893 183.194 601.918 157.64H601.558Z" fill="#FE72DD"/>
        <path d="M661.838 309.252L646.361 426.943C644.202 443.139 655.719 457.896 671.915 459.695C729.501 466.174 744.257 444.579 752.535 382.674C760.813 319.689 751.096 295.215 691.71 286.578C676.954 284.418 663.637 294.856 661.838 309.612V309.252Z" fill="#0081de"/>
        <path d="M752.537 382.315C744.259 444.22 729.502 465.815 671.916 459.336C659.32 457.897 649.242 448.539 646.723 437.022C651.042 442.421 657.88 446.02 665.438 446.74C720.145 452.138 734.541 433.063 742.459 378.356C750.377 322.57 738.5 299.176 684.873 292.697L672.276 291.618C677.675 287.658 684.873 285.499 692.072 286.579C751.457 295.217 761.175 319.691 752.537 382.675V382.315Z" fill="#0054c5"/>
        <path d="M663.279 422.983C695.671 426.583 704.309 413.266 709.348 375.115C714.387 336.964 709.348 321.488 677.316 316.809C669.038 315.601 666.518 315.73 663.639 317.529C660.76 319.329 660.04 320.768 659.68 324.368L647.803 413.626C647.083 420.104 649.243 421.544 663.279 422.983Z" fill="#20aaee"/>
        <g style="mix-blend-mode:multiply" opacity="0.5">
            <path d="M525.257 309.884C516.979 375.748 506.541 402.021 397.128 385.825C289.874 369.989 286.635 342.276 295.273 277.852C303.911 213.787 329.464 203.71 419.083 215.587C510.14 227.464 533.534 244.38 525.257 309.884Z" fill="#005fc5"/>
        </g>
        <path d="M515.902 298.367C508.703 359.193 498.986 383.667 393.532 371.429C288.077 359.192 284.118 332.919 291.317 272.094C298.515 211.269 324.069 201.191 412.247 211.629C500.785 222.066 523.1 237.542 515.902 298.367Z" fill="#48ceee"/>
        <path d="M294.553 331.119C294.913 331.839 295.273 332.559 295.633 333.278C295.633 332.559 294.913 331.839 294.553 331.119Z" fill="#48ceee"/>
        <path d="M515.9 298.367C508.701 359.192 498.984 383.666 393.53 371.429C329.465 363.871 302.832 351.634 293.474 329.32C300.312 346.955 331.265 356.673 384.532 362.791C485.307 374.668 495.025 350.194 501.863 290.089C505.462 259.857 505.462 237.182 486.747 228.184C513.38 240.781 520.219 260.936 515.9 298.367Z" fill="#20aaee"/>
        <path d="M510.501 305.205C507.262 330.038 504.022 353.433 491.426 362.79C508.341 350.553 512.3 329.319 515.9 298.726C519.139 271.373 516.259 253.377 504.382 240.78C514.1 252.657 513.74 280.011 510.141 305.564L510.501 305.205Z" fill="#FD99E9"/>
        <path d="M494.304 360.272C494.304 360.272 494.304 360.272 493.584 360.632C493.584 360.632 493.944 360.272 494.304 359.912V360.272Z" fill="#20aaee"/>
        <path d="M611.724 286.036C613.933 269.486 603.903 254.492 589.323 252.547C574.743 250.601 561.134 262.441 558.925 278.991C556.717 295.542 566.746 310.536 581.327 312.481C595.907 314.426 609.516 302.587 611.724 286.036Z" fill="black"/>
        <path d="M273.812 247.49C275.731 233.107 268.182 220.233 256.952 218.734C245.721 217.236 235.061 227.681 233.142 242.064C231.223 256.447 238.771 269.321 250.002 270.82C261.233 272.318 271.892 261.873 273.812 247.49Z" fill="black"/>
        <path d="M363.298 306.645C364.378 297.647 355.38 290.809 340.264 288.649C325.148 286.49 314.71 290.809 313.271 299.806C311.831 308.804 321.189 315.642 336.305 317.802C351.421 319.961 361.859 315.642 363.298 306.645Z" fill="#004cbb"/>
        <path d="M451.837 318.163C452.916 309.165 443.559 302.326 428.082 300.167C412.246 298.007 401.449 302.326 400.369 311.324C399.29 320.322 408.647 327.16 424.123 329.32C439.96 331.479 450.757 327.16 451.837 318.163Z" fill="#004cbb"/>
        <path d="M733.822 443.5C745.339 429.463 748.938 388.793 750.018 377.996C753.617 342.004 749.298 320.41 726.983 305.653C709.348 294.136 687.753 291.977 670.117 293.056C670.117 293.056 670.837 292.337 671.197 291.977C671.917 291.617 672.277 290.897 672.996 290.537C678.755 286.578 685.953 284.418 693.511 285.498C750.737 293.416 760.455 318.25 752.897 380.155C746.921 429.103 735.622 439.901 733.822 443.5Z" fill="#FE72DD"/>
        <path d="M429.523 23.0344C408.648 6.1185 393.532 0 381.295 0C405.409 0 435.642 34.9115 457.956 55.0665C479.911 75.2216 538.576 126.689 571.688 115.892C575.647 114.812 579.246 113.372 582.126 111.573C542.176 130.288 462.635 49.3079 429.883 23.0344H429.523Z" fill="#FD99E9"/>
        <path d="M577.805 44.2692C565.928 53.267 548.292 73.4221 538.215 82.06C557.29 65.8639 577.805 46.0688 599.76 33.112C609.837 26.9935 609.837 21.9547 606.958 19.4353C611.277 24.1142 591.842 33.8318 577.805 44.6291V44.2692Z" fill="#FD99E9"/>
        <path d="M605.878 17.9956C606.238 17.9956 606.598 18.3555 606.958 18.7154C606.958 18.7154 606.238 17.9956 605.878 17.9956Z" fill="#FD99E9"/>
        <path d="M206.017 251.579C223.652 154.043 290.596 122.011 420.524 130.649C252.805 117.332 221.493 152.244 206.017 251.579Z" fill="#E6E8FF"/>
        <path d="M291.316 272.093C290.596 278.931 289.877 285.05 289.517 291.168C296.715 228.904 318.31 204.43 403.969 210.908C322.629 202.27 298.514 213.427 291.676 272.093H291.316Z" fill="white"/>
        <path d="M469.47 418.937C480.267 418.217 491.065 417.137 500.063 411.019C502.942 409.219 505.461 406.7 508.341 404.18C513.379 399.142 522.017 399.142 527.056 404.18C540.733 418.937 514.459 438.012 501.502 442.691C490.705 446.65 479.908 447.73 469.11 447.01C451.475 445.57 451.834 420.017 469.11 418.937H469.47Z" fill="black"/>
        <path d="M248.597 231.55C252.315 227.96 254.209 223.89 252.829 222.46C251.448 221.031 247.315 222.782 243.597 226.372C239.879 229.962 237.985 234.031 239.366 235.461C240.747 236.891 244.88 235.14 248.597 231.55Z" fill="#E6E8FF"/>
        <path d="M578.815 268.034C582.533 264.444 584.203 260.143 582.546 258.427C580.889 256.711 576.532 258.23 572.815 261.82C569.097 265.41 567.426 269.712 569.083 271.428C570.74 273.143 575.097 271.624 578.815 268.034Z" fill="#46cbf3"/>
        <path d="M581.404 653.599H589.682C589.322 638.483 581.044 616.888 567.727 604.291C565.927 602.492 563.768 600.692 561.968 599.253C574.565 610.77 580.684 629.125 581.404 653.599Z" fill="#FE72DD"/>
        <path d="M555.85 595.654C546.492 590.615 536.774 589.175 524.178 588.815C506.542 588.815 494.305 589.535 481.348 598.533C468.031 607.891 456.874 616.169 450.396 619.768C449.316 620.488 448.236 620.848 446.797 621.567C439.958 624.807 440.678 626.246 468.391 626.246H532.456C539.294 626.246 546.852 626.246 552.611 617.248C558.009 608.251 561.968 599.613 555.85 595.654Z" fill="#109ce6"/>
    </g>
    <defs>
        <linearGradient id="paint0_linear_5_21396" x1="90.4032" y1="450.451" x2="57.5033" y2="323.033" gradientUnits="userSpaceOnUse">
            <stop stop-color="#005fc5"/>
            <stop offset="0.3" stop-color="#0071d2"/>
            <stop offset="0.7" stop-color="#018ee8"/>
            <stop offset="0.9" stop-color="#0491e8"/>
            <stop offset="1" stop-color="#0d98e9"/>
        </linearGradient>
        <linearGradient id="paint1_linear_5_21396" x1="435.28" y1="621.207" x2="548.652" y2="621.207" gradientUnits="userSpaceOnUse">
            <stop stop-color="#4451D2"/>
            <stop offset="0.6" stop-color="#005fc5"/>
            <stop offset="0.8" stop-color="#008bbf"/>
            <stop offset="1" stop-color="#0046b8"/>
        </linearGradient>
        <linearGradient id="paint2_linear_5_21396" x1="550.447" y1="513.595" x2="353.573" y2="100.741" gradientUnits="userSpaceOnUse">
            <stop stop-color="#005fc5"/>
            <stop offset="0.2" stop-color="#0066ca"/>
            <stop offset="0.4" stop-color="#007cda"/>
            <stop offset="0.6" stop-color="#018ee8"/>
            <stop offset="0.8" stop-color="#0e9ae9"/>
            <stop offset="1" stop-color="#24aeeb"/>
        </linearGradient>
        <clipPath id="clip0_5_21396">
            <rect width="759.054" height="653.6" fill="white" transform="translate(0.867188)"/>
        </clipPath>
    </defs>
</svg>