<svg xmlns="http://www.w3.org/2000/svg" width="960" height="800" viewBox="0 0 960 800" fill="none">
<g clip-path="url(#clip0_0_273)">
<rect width="960" height="800" fill="#181c25"/>
<path d="M480 68C480 61.3726 485.373 56 492 56H528C534.627 56 540 61.3726 540 68V79C540 85.6274 534.627 91 528 91H492C485.373 91 480 85.6274 480 79V68Z" fill="rgba(0, 0, 0, .15)"/>
<path d="M564 68C564 61.3726 569.373 56 576 56H681C687.627 56 693 61.3726 693 68V79C693 85.6274 687.627 91 681 91H576C569.373 91 564 85.6274 564 79V68Z" fill="rgba(0, 0, 0, .15)"/>
<path d="M717 68C717 61.3726 722.373 56 729 56H834C840.627 56 846 61.3726 846 68V79C846 85.6274 840.627 91 834 91H729C722.373 91 717 85.6274 717 79V68Z" fill="rgba(0, 0, 0, .15)"/>
<path d="M480 123C480 118.582 483.582 115 488 115H572C576.418 115 580 118.582 580 123C580 127.418 576.418 131 572 131H488C483.582 131 480 127.418 480 123Z" fill="rgba(0, 0, 0, .15)"/>
<path d="M480 151C480 144.373 485.373 139 492 139H900C906.627 139 912 144.373 912 151V277C912 283.627 906.627 289 900 289H492C485.373 289 480 283.627 480 277V151Z" fill="rgba(0, 0, 0, .15)"/>
<path d="M480 309C480 302.373 485.373 297 492 297H900C906.627 297 912 302.373 912 309V435C912 441.627 906.627 447 900 447H492C485.373 447 480 441.627 480 435V309Z" fill="rgba(0, 0, 0, .15)"/>
<path d="M480 479C480 474.582 483.582 471 488 471H572C576.418 471 580 474.582 580 479C580 483.418 576.418 487 572 487H488C483.582 487 480 483.418 480 479Z" fill="rgba(0, 0, 0, .15)"/>
<path d="M480 507C480 500.373 485.373 495 492 495H900C906.627 495 912 500.373 912 507V563C912 569.627 906.627 575 900 575H492C485.373 575 480 569.627 480 563V507Z" fill="rgba(0, 0, 0, .15)"/>
<path d="M480 595C480 588.373 485.373 583 492 583H900C906.627 583 912 588.373 912 595V651C912 657.627 906.627 663 900 663H492C485.373 663 480 657.627 480 651V595Z" fill="rgba(0, 0, 0, .15)"/>
<path d="M480 683C480 676.373 485.373 671 492 671H900C906.627 671 912 676.373 912 683V739C912 745.627 906.627 751 900 751H492C485.373 751 480 745.627 480 739V683Z" fill="rgba(0, 0, 0, .15)"/>
<path d="M480 771C480 764.373 485.373 759 492 759H900C906.627 759 912 764.373 912 771V827C912 833.627 906.627 839 900 839H492C485.373 839 480 833.627 480 827V771Z" fill="rgba(0, 0, 0, .15)"/>
<g filter="url(#filter0_d_0_273)">
<path d="M48 48C48 39.1635 55.1634 32 64 32H432C440.837 32 448 39.1634 448 48V801H48V48Z" fill="rgba(0, 0, 0, .15)"/>
<g clip-path="url(#clip1_0_273)">
<path d="M448 152H186C186 121.072 160.928 96 130 96C99.0721 96 74 121.072 74 152H48V32H448V152Z" fill="#000" fill-opacity="0.3"/>
</g>
<path d="M130 102C157.614 102 180 124.386 180 152C180 179.614 157.614 202 130 202C102.386 202 80.0001 179.614 80 152C80 124.386 102.386 102 130 102Z" fill="#000" fill-opacity="0.3"/>
<path d="M80 227C80 220.373 85.3726 215 92 215H186C192.627 215 198 220.373 198 227V238C198 244.627 192.627 250 186 250H92C85.3726 250 80 244.627 80 238V227Z" fill="#000" fill-opacity="0.3"/>
<path d="M80 270C80 265.582 83.5817 262 88 262H354C358.418 262 362 265.582 362 270C362 274.418 358.418 278 354 278H88C83.5817 278 80 274.418 80 270Z" fill="#000" fill-opacity="0.3"/>
<path d="M80 310C80 305.582 83.5817 302 88 302H190C194.418 302 198 305.582 198 310V334C198 338.418 194.418 342 190 342H88C83.5817 342 80 338.418 80 334V310Z" fill="#000" fill-opacity="0.3"/>
<path d="M206 310C206 305.582 209.582 302 214 302H238C242.418 302 246 305.582 246 310V334C246 338.418 242.418 342 238 342H214C209.582 342 206 338.418 206 334V310Z" fill="#000" fill-opacity="0.3"/>
<path d="M254 310C254 305.582 257.582 302 262 302H286C290.418 302 294 305.582 294 310V334C294 338.418 290.418 342 286 342H262C257.582 342 254 338.418 254 334V310Z" fill="#000" fill-opacity="0.3"/>
<path d="M80 374C80 369.582 83.5817 366 88 366H408C412.418 366 416 369.582 416 374C416 378.418 412.418 382 408 382H88C83.5817 382 80 378.418 80 374Z" fill="#000" fill-opacity="0.3"/>
<path d="M80 398C80 393.582 83.5817 390 88 390H386C390.418 390 394 393.582 394 398C394 402.418 390.418 406 386 406H88C83.5817 406 80 402.418 80 398Z" fill="#000" fill-opacity="0.3"/>
<path d="M80 422C80 417.582 83.5817 414 88 414H396C400.418 414 404 417.582 404 422C404 426.418 400.418 430 396 430H88C83.5817 430 80 426.418 80 422Z" fill="#000" fill-opacity="0.3"/>
<path d="M80 446C80 441.582 83.5817 438 88 438H296C300.418 438 304 441.582 304 446C304 450.418 300.418 454 296 454H88C83.5817 454 80 450.418 80 446Z" fill="#000" fill-opacity="0.3"/>
<path d="M80 486C80 481.582 83.5817 478 88 478H148C152.418 478 156 481.582 156 486C156 490.418 152.418 494 148 494H88C83.5817 494 80 490.418 80 486Z" fill="#000" fill-opacity="0.3"/>
<path d="M80 510C80 505.582 83.5817 502 88 502H386C390.418 502 394 505.582 394 510C394 514.418 390.418 518 386 518H88C83.5817 518 80 514.418 80 510Z" fill="#000" fill-opacity="0.3"/>
<path d="M80 550C80 545.582 83.5817 542 88 542H171C175.418 542 179 545.582 179 550C179 554.418 175.418 558 171 558H88C83.5817 558 80 554.418 80 550Z" fill="#000" fill-opacity="0.3"/>
<path d="M80 574C80 569.582 83.5817 566 88 566H386C390.418 566 394 569.582 394 574C394 578.418 390.418 582 386 582H88C83.5817 582 80 578.418 80 574Z" fill="#000" fill-opacity="0.3"/>
<path d="M80 598C80 593.582 83.5817 590 88 590H408C412.418 590 416 593.582 416 598C416 602.418 412.418 606 408 606H88C83.5817 606 80 602.418 80 598Z" fill="#000" fill-opacity="0.3"/>
<path d="M80 638C80 633.582 83.5817 630 88 630H103C107.418 630 111 633.582 111 638C111 642.418 107.418 646 103 646H88C83.5817 646 80 642.418 80 638Z" fill="#000" fill-opacity="0.3"/>
<path d="M80 662C80 657.582 83.5817 654 88 654H193C197.418 654 201 657.582 201 662C201 666.418 197.418 670 193 670H88C83.5817 670 80 666.418 80 662Z" fill="#000" fill-opacity="0.3"/>
</g>
</g>
<defs>
<filter id="filter0_d_0_273" x="32" y="20" width="432" height="801" filterUnits="userSpaceOnUse" color-interpolation-filters="sRGB">
<feFlood flood-opacity="0" result="BackgroundImageFix"/>
<feColorMatrix in="SourceAlpha" type="matrix" values="0 0 0 0 0 0 0 0 0 0 0 0 0 0 0 0 0 0 127 0" result="hardAlpha"/>
<feOffset dy="4"/>
<feGaussianBlur stdDeviation="8"/>
<feComposite in2="hardAlpha" operator="out"/>
<feColorMatrix type="matrix" values="0 0 0 0 0 0 0 0 0 0 0 0 0 0 0 0 0 0 0.08 0"/>
<feBlend mode="normal" in2="BackgroundImageFix" result="effect1_dropShadow_0_273"/>
<feBlend mode="normal" in="SourceGraphic" in2="effect1_dropShadow_0_273" result="shape"/>
</filter>
<clipPath id="clip0_0_273">
<rect width="960" height="800" fill="white"/>
</clipPath>
<clipPath id="clip1_0_273">
<path d="M48 48C48 39.1634 55.1634 32 64 32H432C440.837 32 448 39.1634 448 48V152H48V48Z" fill="white"/>
</clipPath>
</defs>
</svg>