<svg xmlns="http://www.w3.org/2000/svg" xmlns:xlink="http://www.w3.org/1999/xlink" version="1.1" width="960px" height="756px" style="shape-rendering:geometricPrecision; text-rendering:geometricPrecision; image-rendering:optimizeQuality; fill-rule:evenodd; clip-rule:evenodd">
<g><path style="opacity:0.995" fill="transparent" d="M 16.5,-0.5 C 325.167,-0.5 633.833,-0.5 942.5,-0.5C 950.5,2.83333 956.167,8.5 959.5,16.5C 959.5,257.167 959.5,497.833 959.5,738.5C 956.167,746.5 950.5,752.167 942.5,755.5C 633.833,755.5 325.167,755.5 16.5,755.5C 8.5,752.167 2.83333,746.5 -0.5,738.5C -0.5,497.833 -0.5,257.167 -0.5,16.5C 2.83333,8.5 8.5,2.83333 16.5,-0.5 Z"/></g>
<g><path style="opacity:1" fill="#14171F" d="M 251.5,2.5 C 251.5,138.5 251.5,274.5 251.5,410.5C 251.5,462.5 251.5,514.5 251.5,566.5C 251.5,567.5 251.5,568.5 251.5,569.5C 251.5,630.5 251.5,691.5 251.5,752.5C 173.833,752.667 96.166,752.5 18.5,752C 10.6667,749.5 5.5,744.333 3,736.5C 2.5,670.834 2.33334,605.168 2.5,539.5C 9.54592,538.954 14.0459,535.287 16,528.5C 16.6667,489.833 16.6667,451.167 16,412.5C 14.1661,406.831 10.3328,403.497 4.5,402.5C 3.17019,338.543 2.50353,274.376 2.5,210C 2.66667,146.167 2.83333,82.3333 3,18.5C 5.5,10.6667 10.6667,5.5 18.5,3C 96.166,2.5 173.833,2.33334 251.5,2.5 Z"/></g>
<g><path style="opacity:1" fill="#008ae5" d="M 251.5,2.5 C 480.834,2.33333 710.167,2.5 939.5,3C 947.893,5.05865 953.393,10.2253 956,18.5C 956.5,149.166 956.667,279.833 956.5,410.5C 721.5,410.5 486.5,410.5 251.5,410.5C 251.5,274.5 251.5,138.5 251.5,2.5 Z"/></g>
<g><path style="opacity:1" fill="rgba(0,0,0,.5)" d="M 117.5,14.5 C 160.114,12.3763 189.948,30.7096 207,69.5C 218.109,110.18 206.609,142.68 172.5,167C 137.957,185.885 105.291,183.218 74.5,159C 45.2413,129.771 39.0746,96.2708 56,58.5C 69.7673,34.3711 90.2673,19.7044 117.5,14.5 Z"/></g>
<g><path style="opacity:1" fill="#fcfcfe" d="M 302.5,41.5 C 305.875,41.767 309.042,42.767 312,44.5C 314.449,43.3586 316.949,42.3586 319.5,41.5C 322.319,43.2816 324.319,45.7816 325.5,49C 328.308,49.9932 331.141,50.8266 334,51.5C 334.66,54.0472 334.493,56.5472 333.5,59C 335.108,62.272 337.108,65.272 339.5,68C 338.392,70.1124 336.892,71.9458 335,73.5C 334.825,77.211 334.325,80.8776 333.5,84.5C 327.44,84.3896 323.44,87.223 321.5,93C 318.043,93.4442 314.71,92.9442 311.5,91.5C 308.96,92.0199 306.46,92.6866 304,93.5C 301.372,92.1214 299.539,89.9548 298.5,87C 295.133,86.2004 291.966,85.0337 289,83.5C 290.844,77.8679 289.511,73.2012 285,69.5C 284.434,66.0212 285.767,63.3545 289,61.5C 289.175,57.789 289.675,54.1224 290.5,50.5C 292.776,49.7868 295.109,49.2868 297.5,49C 299.301,46.5574 300.968,44.0574 302.5,41.5 Z"/></g>
<g><path style="opacity:1" fill="#f4f4fa" d="M 706.5,76.5 C 706.5,77.8333 706.5,79.1667 706.5,80.5C 706.426,82.4109 705.426,83.5776 703.5,84C 695.345,86.6287 687.678,85.7953 680.5,81.5C 679.5,79.8333 678.167,78.5 676.5,77.5C 671.022,65.9898 673.022,56.1564 682.5,48C 690.039,43.5629 697.706,43.3962 705.5,47.5C 706.655,50.4459 706.821,53.4459 706,56.5C 700.401,53.2567 694.568,52.7567 688.5,55C 683.28,59.9162 682.113,65.7496 685,72.5C 686.167,73.6667 687.333,74.8333 688.5,76C 693.5,76.6667 698.5,76.6667 703.5,76C 705.304,74.1878 706.304,74.3544 706.5,76.5 Z"/></g>
<g><path style="opacity:1" fill="#fafafe" d="M 367.5,46.5 C 370.833,46.5 374.167,46.5 377.5,46.5C 379.013,55.2202 380.846,63.8868 383,72.5C 385.471,64.2814 387.471,55.948 389,47.5C 392.73,46.5399 396.563,46.2065 400.5,46.5C 401.558,54.7333 403.558,62.7333 406.5,70.5C 409.353,62.7131 411.353,54.7131 412.5,46.5C 415.85,46.335 419.183,46.5017 422.5,47C 418.466,59.3017 415.133,71.8017 412.5,84.5C 408.833,84.5 405.167,84.5 401.5,84.5C 399.779,75.7271 397.612,67.0605 395,58.5C 392.045,66.6445 389.545,74.9778 387.5,83.5C 384.232,84.487 380.898,84.8204 377.5,84.5C 374.479,71.7477 371.145,59.081 367.5,46.5 Z"/></g>
<g><path style="opacity:1" fill="#f8f8fe" d="M 651.5,81.5 C 650.596,82.209 650.263,83.209 650.5,84.5C 647.941,84.8016 645.607,84.4682 643.5,83.5C 643.66,81.8008 643.494,80.1341 643,78.5C 638.121,85.0158 631.621,87.1825 623.5,85C 618.45,83.5662 616.117,80.2329 616.5,75C 616.196,70.7733 617.863,67.6066 621.5,65.5C 615.008,59.5888 615.008,53.7555 621.5,48C 627.785,44.9574 634.118,44.7907 640.5,47.5C 641.652,50.1062 641.818,52.7728 641,55.5C 637.033,53.6145 632.866,53.1145 628.5,54C 625.629,56.8402 625.963,59.1735 629.5,61C 634.155,61.4992 638.821,61.6658 643.5,61.5C 642.306,55.093 644.972,52.093 651.5,52.5C 651.5,55.1667 651.5,57.8333 651.5,60.5C 653.5,60.5 655.5,60.5 657.5,60.5C 657.5,62.8333 657.5,65.1667 657.5,67.5C 655.5,67.5 653.5,67.5 651.5,67.5C 651.5,72.1667 651.5,76.8333 651.5,81.5 Z"/></g>
<g><path style="opacity:1" fill="#ff80fa" d="M 311.5,50.5 C 326.162,61.795 326.162,73.1283 311.5,84.5C 308.182,81.6828 305.015,78.6828 302,75.5C 301.333,70.5 301.333,65.5 302,60.5C 305.371,57.2975 308.538,53.9641 311.5,50.5 Z"/></g>
<g><path style="opacity:1" fill="#fff7fe" d="M 310.5,55.5 C 318.185,59.0827 320.685,65.0827 318,73.5C 315.984,75.684 313.817,77.684 311.5,79.5C 304.623,75.2713 302.623,69.2713 305.5,61.5C 307.938,60.0692 309.604,58.0692 310.5,55.5 Z"/></g>
<g><path style="opacity:1" fill="#fbfbfe" d="M 484.5,66.5 C 483.51,72.31 483.177,78.31 483.5,84.5C 481.167,84.5 478.833,84.5 476.5,84.5C 476.822,78.642 476.489,72.9753 475.5,67.5C 474.872,64.0451 472.872,62.8785 469.5,64C 468.177,64.8159 467.511,65.9826 467.5,67.5C 466.511,72.9753 466.178,78.642 466.5,84.5C 464.167,84.5 461.833,84.5 459.5,84.5C 459.5,75.5 459.5,66.5 459.5,57.5C 461.833,57.5 464.167,57.5 466.5,57.5C 466.343,58.8734 466.51,60.2068 467,61.5C 467.717,60.9558 468.217,60.2891 468.5,59.5C 472.01,56.1666 476.01,55.6666 480.5,58C 481.701,58.9025 482.535,60.0692 483,61.5C 486.721,56.3349 491.554,55.1682 497.5,58C 499.487,59.3189 500.654,61.1523 501,63.5C 501.5,70.8258 501.666,78.1591 501.5,85.5C 498.5,85.5 495.5,85.5 492.5,85.5C 492.666,78.825 492.5,72.1583 492,65.5C 489.063,62.6938 486.563,63.0271 484.5,66.5 Z"/></g>
<g><path style="opacity:1" fill="#f7f7fe" d="M 521.5,56.5 C 533.577,56.416 538.743,62.416 537,74.5C 533.466,85.2726 526.799,87.9392 517,82.5C 516.501,86.8206 516.334,91.1539 516.5,95.5C 513.5,95.5 510.5,95.5 507.5,95.5C 507.5,82.8333 507.5,70.1667 507.5,57.5C 510.5,57.5 513.5,57.5 516.5,57.5C 516.351,58.552 516.517,59.552 517,60.5C 518.397,58.9297 519.897,57.5964 521.5,56.5 Z"/></g>
<g><path style="opacity:1" fill="#f8f8fe" d="M 597.5,79.5 C 593.266,85.0931 587.599,86.9265 580.5,85C 579.255,84.2086 577.922,83.7086 576.5,83.5C 574.454,81.1337 574.121,78.467 575.5,75.5C 579.382,78.1608 583.716,79.1608 588.5,78.5C 588.5,77.1667 588.5,75.8333 588.5,74.5C 584.315,74.1625 580.481,72.8291 577,70.5C 573.704,63.7299 575.537,59.2299 582.5,57C 586.996,56.1477 591.33,56.6477 595.5,58.5C 596.647,60.7649 596.814,63.0982 596,65.5C 593.569,63.9114 590.903,62.9114 588,62.5C 583.851,62.7664 583.018,64.2664 585.5,67C 589.159,67.7943 592.659,68.961 596,70.5C 597.289,73.3508 597.789,76.3508 597.5,79.5 Z"/></g>
<g><path style="opacity:1" fill="#f9f9fd" d="M 738.5,78.5 C 737.599,79.2905 736.932,80.2905 736.5,81.5C 728.568,87.0731 720.902,86.7398 713.5,80.5C 712.4,79.3951 711.733,78.0618 711.5,76.5C 709.334,59.5154 716.668,53.3487 733.5,58C 740.643,63.4991 742.309,70.3324 738.5,78.5 Z"/></g>
<g><path style="opacity:1" fill="#f8f8fe" d="M 878.5,56.5 C 884.409,60.9018 889.909,65.9018 895,71.5C 899.833,66.6667 904.667,61.8333 909.5,57C 911.92,57.3716 913.92,58.7049 915.5,61C 908.667,67.8333 901.833,74.6667 895,81.5C 888.167,74.6667 881.333,67.8333 874.5,61C 876.041,59.6288 877.375,58.1288 878.5,56.5 Z"/></g>
<g><path style="opacity:1" fill="#f8f8fe" d="M 442.5,56.5 C 445.5,56.5 448.5,56.5 451.5,56.5C 451.5,65.8333 451.5,75.1667 451.5,84.5C 448.833,84.5 446.167,84.5 443.5,84.5C 443.865,79.5786 442.865,79.2453 440.5,83.5C 433.449,87.3375 428.282,85.6708 425,78.5C 424.5,71.5079 424.334,64.5079 424.5,57.5C 427.5,57.5 430.5,57.5 433.5,57.5C 433.334,63.8421 433.5,70.1754 434,76.5C 435.77,78.4181 437.937,78.9181 440.5,78C 441.126,77.2496 441.626,76.4162 442,75.5C 442.5,69.1754 442.666,62.8421 442.5,56.5 Z"/></g>
<g><path style="opacity:1" fill="#d2d4fc" d="M 468.5,59.5 C 468.217,60.2891 467.717,60.9558 467,61.5C 466.51,60.2068 466.343,58.8734 466.5,57.5C 464.167,57.5 461.833,57.5 459.5,57.5C 459.5,66.5 459.5,75.5 459.5,84.5C 461.833,84.5 464.167,84.5 466.5,84.5C 466.178,78.642 466.511,72.9753 467.5,67.5C 467.5,73.5 467.5,79.5 467.5,85.5C 464.5,85.5 461.5,85.5 458.5,85.5C 458.5,75.8333 458.5,66.1667 458.5,56.5C 461.5,56.5 464.5,56.5 467.5,56.5C 467.263,57.791 467.596,58.791 468.5,59.5 Z"/></g>
<g><path style="opacity:1" fill="#fafafe" d="M 568.5,57.5 C 568.5,66.5 568.5,75.5 568.5,84.5C 566.167,84.5 563.833,84.5 561.5,84.5C 561.657,83.1266 561.49,81.7932 561,80.5C 560.283,81.0442 559.783,81.7109 559.5,82.5C 554.638,86.3812 549.805,86.3812 545,82.5C 544.333,81.1667 543.667,79.8333 543,78.5C 542.5,71.5079 542.334,64.5079 542.5,57.5C 545.5,57.5 548.5,57.5 551.5,57.5C 551.334,63.8421 551.5,70.1754 552,76.5C 555.156,79.3988 557.822,79.0655 560,75.5C 560.499,69.5092 560.666,63.5092 560.5,57.5C 563.167,57.5 565.833,57.5 568.5,57.5 Z"/></g>
<g><path style="opacity:1" fill="#c7cafb" d="M 568.5,57.5 C 569.494,66.6517 569.827,75.985 569.5,85.5C 566.5,85.5 563.5,85.5 560.5,85.5C 560.737,84.209 560.404,83.209 559.5,82.5C 559.783,81.7109 560.283,81.0442 561,80.5C 561.49,81.7932 561.657,83.1266 561.5,84.5C 563.833,84.5 566.167,84.5 568.5,84.5C 568.5,75.5 568.5,66.5 568.5,57.5 Z"/></g>
<g><path style="opacity:1" fill="#ff83fa" d="M 310.5,60.5 C 312.196,60.6854 313.529,61.5187 314.5,63C 308.892,69.1567 307.559,68.3233 310.5,60.5 Z"/></g>
<g><path style="opacity:1" fill="#fbfbfb" d="M 113.5,61.5 C 114.675,61.281 115.675,61.6143 116.5,62.5C 117.083,64.0016 117.916,65.3349 119,66.5C 125.667,65.1667 132.333,65.1667 139,66.5C 140.102,64.6191 141.435,62.9525 143,61.5C 149.009,62.7935 154.842,64.6269 160.5,67C 172.263,82.8805 177.097,100.714 175,120.5C 167.971,125.098 160.471,128.764 152.5,131.5C 149.81,129.807 147.81,127.473 146.5,124.5C 148.833,123 151.167,121.5 153.5,120C 148.765,120.348 144.099,121.348 139.5,123C 132.167,123.667 124.833,123.667 117.5,123C 113.24,122.191 109.24,120.691 105.5,118.5C 104.692,118.808 104.025,119.308 103.5,120C 112.32,122.836 112.82,126.67 105,131.5C 97.2319,129.199 90.0652,125.699 83.5,121C 80.8016,101.094 85.4683,83.0944 97.5,67C 102.835,64.8339 108.168,63.0005 113.5,61.5 Z"/></g>
<g><path style="opacity:1" fill="#068fe6" d="M 519.5,63.5 C 527.098,63.3341 529.931,67.0008 528,74.5C 524.74,79.2852 521.073,79.6185 517,75.5C 515.773,70.938 516.607,66.938 519.5,63.5 Z"/></g>
<g><path style="opacity:1" fill="#058de6" d="M 728.5,76.5 C 726.167,76.5 723.833,76.5 721.5,76.5C 720.778,76.0825 720.278,75.4158 720,74.5C 719.333,71.8333 719.333,69.1667 720,66.5C 723.979,62.3562 727.645,62.6896 731,67.5C 732.07,71.1421 731.236,74.1421 728.5,76.5 Z"/></g>
<g><path style="opacity:1" fill="#058de6" d="M 628.5,67.5 C 633.167,67.5 637.833,67.5 642.5,67.5C 641.333,76.4768 636.333,79.6434 627.5,77C 624.675,73.4764 625.008,70.3097 628.5,67.5 Z"/></g>
<g><path style="opacity:1" fill="#ff89fa" d="M 313.5,67.5 C 314.649,67.7911 315.316,68.6244 315.5,70C 314.943,74.2571 312.943,75.2571 309.5,73C 311.464,71.549 312.797,69.7157 313.5,67.5 Z"/></g>
<g><path style="opacity:1" fill="#c9cdfb" d="M 484.5,66.5 C 484.5,72.8333 484.5,79.1667 484.5,85.5C 481.5,85.5 478.5,85.5 475.5,85.5C 475.5,79.5 475.5,73.5 475.5,67.5C 476.489,72.9753 476.822,78.642 476.5,84.5C 478.833,84.5 481.167,84.5 483.5,84.5C 483.177,78.31 483.51,72.31 484.5,66.5 Z"/></g>
<g><path style="opacity:1" fill="#110f1a" d="M 706.5,76.5 C 708.167,76.5 709.833,76.5 711.5,76.5C 711.733,78.0618 712.4,79.3951 713.5,80.5C 711.167,80.5 708.833,80.5 706.5,80.5C 706.5,79.1667 706.5,77.8333 706.5,76.5 Z"/></g>
<g><path style="opacity:1" fill="#3e3c51" d="M 721.5,76.5 C 723.833,76.5 726.167,76.5 728.5,76.5C 727.866,77.9468 726.699,78.6134 725,78.5C 723.301,78.6134 722.134,77.9468 721.5,76.5 Z"/></g>
<g><path style="opacity:1" fill="#070610" d="M 738.5,78.5 C 782.379,81.1966 819.879,97.8633 851,128.5C 863.827,144.168 871.16,162.168 873,182.5C 875.31,219.663 869.977,255.663 857,290.5C 844.924,320.243 824.757,342.743 796.5,358C 791.424,360.414 786.09,361.914 780.5,362.5C 773.862,362.026 769.362,358.692 767,352.5C 765.058,344.464 765.225,336.464 767.5,328.5C 769.167,329.5 770.5,330.833 771.5,332.5C 766.062,357.878 775.062,364.712 798.5,353C 825.334,336.827 844.167,313.993 855,284.5C 867.286,249.119 871.619,212.785 868,175.5C 863.382,148.887 849.882,128.054 827.5,113C 800.172,94.0565 769.839,83.5565 736.5,81.5C 736.932,80.2905 737.599,79.2905 738.5,78.5 Z"/></g>
<g><path style="opacity:1" fill="#0b0a0c" d="M 676.5,77.5 C 678.167,78.5 679.5,79.8333 680.5,81.5C 661.46,82.8274 643.126,86.8274 625.5,93.5C 605.665,101.406 589.665,114.073 577.5,131.5C 575.1,133.296 573.433,135.63 572.5,138.5C 567.413,144.605 563.08,151.271 559.5,158.5C 549.726,173.713 540.726,189.38 532.5,205.5C 531.542,205.953 530.708,206.619 530,207.5C 525.333,215.5 520.667,223.5 516,231.5C 515.501,235.821 515.334,240.154 515.5,244.5C 512.315,244.02 509.481,244.686 507,246.5C 502.005,254.983 496.838,263.317 491.5,271.5C 487.22,276.79 482.887,282.123 478.5,287.5C 480.5,287.833 482.5,288.167 484.5,288.5C 502.138,286.74 519.804,285.407 537.5,284.5C 527.661,292.669 516.328,296.669 503.5,296.5C 504.872,300.249 506.539,303.915 508.5,307.5C 504.5,307.833 500.5,308.167 496.5,308.5C 494.562,305.555 492.895,302.388 491.5,299C 483.477,298.343 475.477,298.51 467.5,299.5C 468.883,303.934 470.549,308.267 472.5,312.5C 467.507,312.916 462.507,313.249 457.5,313.5C 457.631,312.624 457.298,311.957 456.5,311.5C 436.704,331.564 412.704,341.397 384.5,341C 373.514,335.862 369.348,327.362 372,315.5C 373.109,311.281 374.775,307.281 377,303.5C 388.796,289.016 392.296,273.016 387.5,255.5C 390.201,252.346 393.534,251.679 397.5,253.5C 397.5,255.5 397.5,257.5 397.5,259.5C 396.732,258.737 396.232,257.737 396,256.5C 395.436,268.754 393.102,280.754 389,292.5C 383.833,299.674 379.5,307.34 376,315.5C 374.475,333.303 382.642,340.803 400.5,338C 422.122,333.496 440.456,323.329 455.5,307.5C 454.423,305.271 453.756,302.937 453.5,300.5C 439.147,300.817 424.814,301.484 410.5,302.5C 414.833,299.167 419.167,295.833 423.5,292.5C 432.815,291.729 442.148,291.062 451.5,290.5C 458.882,290.385 466.216,289.718 473.5,288.5C 477.909,283.431 481.909,278.098 485.5,272.5C 492.36,263.787 498.694,254.621 504.5,245C 478.35,244.735 452.35,246.568 426.5,250.5C 424.382,240.247 424.049,229.914 425.5,219.5C 425.709,218.006 426.376,216.839 427.5,216C 454.742,211.514 482.075,210.514 509.5,213C 512.001,217.503 513.501,222.336 514,227.5C 519.43,218.971 524.596,210.304 529.5,201.5C 538.497,186.175 547.497,170.841 556.5,155.5C 567.204,136.789 580.537,120.122 596.5,105.5C 598.027,105.573 599.027,104.906 599.5,103.5C 605.905,99.1023 612.571,95.1023 619.5,91.5C 620.492,91.6716 621.158,91.3382 621.5,90.5C 628.67,87.6656 636.003,85.3323 643.5,83.5C 645.607,84.4682 647.941,84.8016 650.5,84.5C 650.263,83.209 650.596,82.209 651.5,81.5C 659.777,79.8428 668.11,78.5095 676.5,77.5 Z"/></g>
<g><path style="opacity:1" fill="#75c5fe" d="M 597.5,79.5 C 601.439,81.4229 605.773,82.9229 610.5,84C 614.56,85.6891 618.227,87.8558 621.5,90.5C 621.158,91.3382 620.492,91.6716 619.5,91.5C 599.64,83.4315 580.64,85.2649 562.5,97C 558.639,99.6961 555.306,102.863 552.5,106.5C 557.892,96.1075 565.892,88.4409 576.5,83.5C 577.922,83.7086 579.255,84.2086 580.5,85C 587.599,86.9265 593.266,85.0931 597.5,79.5 Z"/></g>
<g><path style="opacity:1" fill="#8ad7fe" d="M 619.5,91.5 C 612.571,95.1023 605.905,99.1023 599.5,103.5C 577.854,103.902 561.354,113.235 550,131.5C 549.329,132.252 548.496,132.586 547.5,132.5C 547.334,127.489 547.501,122.489 548,117.5C 548.644,113.381 550.144,109.715 552.5,106.5C 555.306,102.863 558.639,99.6961 562.5,97C 580.64,85.2649 599.64,83.4315 619.5,91.5 Z"/></g>
<g><path style="opacity:1" fill="#383b41" d="M 108.5,91.5 C 121.637,91.1293 124.971,96.6293 118.5,108C 108.039,111.203 103.206,107.369 104,96.5C 105.025,94.313 106.525,92.6464 108.5,91.5 Z"/></g>
<g><path style="opacity:1" fill="#383b41" d="M 140.5,91.5 C 149.658,90.4906 153.492,94.4906 152,103.5C 147,111.5 142,111.5 137,103.5C 135.745,98.7378 136.912,94.7378 140.5,91.5 Z"/></g>
<g><path style="opacity:1" fill="#89d5fb" d="M 596.5,105.5 C 580.537,120.122 567.204,136.789 556.5,155.5C 552.869,149.944 550.202,143.944 548.5,137.5C 558.417,117.865 574.417,107.198 596.5,105.5 Z"/></g>
<g><path style="opacity:1" fill="#89d5fd" d="M 625.5,93.5 C 637.491,105.814 641.824,120.481 638.5,137.5C 619.366,123.912 599.033,121.912 577.5,131.5C 589.665,114.073 605.665,101.406 625.5,93.5 Z"/></g>
<g><path style="opacity:1" fill="#f7e064" d="M 715.5,108.5 C 717.097,112.561 718.597,116.895 720,121.5C 722.018,123.35 723.851,125.35 725.5,127.5C 719.543,131.925 716.543,137.925 716.5,145.5C 716.116,138.064 713.116,132.064 707.5,127.5C 712.886,122.349 715.553,116.016 715.5,108.5 Z"/></g>
<g><path style="opacity:1" fill="#69bdfd" d="M 599.5,103.5 C 599.027,104.906 598.027,105.573 596.5,105.5C 574.417,107.198 558.417,117.865 548.5,137.5C 548.371,135.784 548.038,134.117 547.5,132.5C 548.496,132.586 549.329,132.252 550,131.5C 561.354,113.235 577.854,103.902 599.5,103.5 Z"/></g>
<g><path style="opacity:1" fill="#6abefe" d="M 638.5,137.5 C 638.167,138.167 637.833,138.833 637.5,139.5C 622.211,127.599 605.211,124.432 586.5,130C 581.306,132.091 576.639,134.924 572.5,138.5C 573.433,135.63 575.1,133.296 577.5,131.5C 599.033,121.912 619.366,123.912 638.5,137.5 Z"/></g>
<g><path style="opacity:1" fill="#88d3fb" d="M 637.5,139.5 C 636.962,141.117 636.629,142.784 636.5,144.5C 625.087,135.316 612.087,132.149 597.5,135C 582.032,137.662 570.699,145.829 563.5,159.5C 562.038,160.471 560.705,160.138 559.5,158.5C 563.08,151.271 567.413,144.605 572.5,138.5C 576.639,134.924 581.306,132.091 586.5,130C 605.211,124.432 622.211,127.599 637.5,139.5 Z"/></g>
<g><path style="opacity:1" fill="#1f1aa9" d="M 636.5,144.5 C 640.047,149.189 641.381,154.523 640.5,160.5C 640.095,163.715 639.095,166.715 637.5,169.5C 637.252,155.074 629.919,146.574 615.5,144C 597.576,140.858 583.076,146.358 572,160.5C 568.684,168.546 568.851,176.546 572.5,184.5C 563.032,178.552 560.032,170.219 563.5,159.5C 570.699,145.829 582.032,137.662 597.5,135C 612.087,132.149 625.087,135.316 636.5,144.5 Z"/></g>
<g><path style="opacity:1" fill="#fe78b9" d="M 637.5,169.5 C 637.5,170.833 637.5,172.167 637.5,173.5C 637.833,177.5 638.167,181.5 638.5,185.5C 638.616,188.86 638.949,192.193 639.5,195.5C 640.11,207.553 641.11,219.553 642.5,231.5C 624.839,227.032 608.839,230.365 594.5,241.5C 589.833,229.5 585.167,217.5 580.5,205.5C 584.827,204.52 586.327,201.853 585,197.5C 582.695,195.07 579.862,194.07 576.5,194.5C 575.342,191.011 574.009,187.678 572.5,184.5C 568.851,176.546 568.684,168.546 572,160.5C 583.076,146.358 597.576,140.858 615.5,144C 629.919,146.574 637.252,155.074 637.5,169.5 Z"/></g>
<g><path style="opacity:1" fill="#f3f3fe" d="M 692.5,147.5 C 693.092,152.359 695.092,156.692 698.5,160.5C 694.777,163.613 692.944,167.613 693,172.5C 692.566,167.564 690.399,163.564 686.5,160.5C 690.391,157.051 692.391,152.718 692.5,147.5 Z"/></g>
<g><path style="opacity:1" fill="#f6df5f" d="M 652.5,155.5 C 652.5,156.833 653.167,157.5 654.5,157.5C 650.146,161.813 649.479,166.646 652.5,172C 656.506,172.987 658.339,171.487 658,167.5C 655.234,171.629 653.4,171.296 652.5,166.5C 652.763,163.972 653.596,161.639 655,159.5C 656.49,158.272 657.99,158.272 659.5,159.5C 663.892,165.585 663.392,171.252 658,176.5C 658.453,189.214 652.286,195.548 639.5,195.5C 638.949,192.193 638.616,188.86 638.5,185.5C 641.253,184.978 643.92,184.144 646.5,183C 647.767,181.204 647.767,179.371 646.5,177.5C 643.124,176.901 640.124,175.568 637.5,173.5C 637.5,172.167 637.5,170.833 637.5,169.5C 639.095,166.715 640.095,163.715 640.5,160.5C 641.404,159.791 641.737,158.791 641.5,157.5C 642.5,157.5 643.5,157.5 644.5,157.5C 642.245,161.825 642.079,166.158 644,170.5C 645.359,168.743 645.526,166.743 644.5,164.5C 645.062,159.605 647.729,156.605 652.5,155.5 Z"/></g>
<g><path style="opacity:1" fill="#37ce7f" d="M 435.5,170.5 C 439.73,172.12 443.73,173.953 447.5,176C 444.798,173.005 441.798,170.505 438.5,168.5C 442.872,168.635 447.039,169.635 451,171.5C 454.513,167.654 458.346,164.154 462.5,161C 465.93,158.581 469.596,158.081 473.5,159.5C 469.254,164.32 465.754,169.653 463,175.5C 454.255,184.305 445.255,184.638 436,176.5C 435.505,174.527 435.338,172.527 435.5,170.5 Z"/></g>
<g><path style="opacity:1" fill="#fff7fb" d="M 607.5,157.5 C 609.017,157.511 610.184,158.177 611,159.5C 614.257,167.304 618.257,174.638 623,181.5C 624.163,174.897 624.83,168.23 625,161.5C 626.011,160.663 627.178,160.33 628.5,160.5C 629.99,167.771 630.49,175.104 630,182.5C 627.784,191.97 623.451,192.97 617,185.5C 612.394,177.622 608.894,169.289 606.5,160.5C 606.685,159.416 607.018,158.416 607.5,157.5 Z"/></g>
<g><path style="opacity:1" fill="#1b180e" d="M 652.5,155.5 C 647.729,156.605 645.062,159.605 644.5,164.5C 645.526,166.743 645.359,168.743 644,170.5C 642.079,166.158 642.245,161.825 644.5,157.5C 645.973,156.928 647.307,156.095 648.5,155C 651.838,154.124 653.171,154.291 652.5,155.5 Z"/></g>
<g><path style="opacity:1" fill="#1a170d" d="M 659.5,159.5 C 657.99,158.272 656.49,158.272 655,159.5C 653.596,161.639 652.763,163.972 652.5,166.5C 653.4,171.296 655.234,171.629 658,167.5C 658.339,171.487 656.506,172.987 652.5,172C 649.479,166.646 650.146,161.813 654.5,157.5C 656.042,156.699 657.708,156.366 659.5,156.5C 659.5,157.5 659.5,158.5 659.5,159.5 Z"/></g>
<g><path style="opacity:1" fill="#151927" d="M 438.5,168.5 C 441.798,170.505 444.798,173.005 447.5,176C 443.73,173.953 439.73,172.12 435.5,170.5C 430.675,169.042 425.842,169.375 421,171.5C 419.278,171.389 419.112,170.889 420.5,170C 426.307,167.319 432.307,166.819 438.5,168.5 Z"/></g>
<g><path style="opacity:1" fill="#f676b8" d="M 747.5,195.5 C 746.833,195.5 746.167,195.5 745.5,195.5C 744.992,191.109 744.158,186.775 743,182.5C 741.117,179.976 738.617,178.642 735.5,178.5C 730.489,178.334 725.489,178.501 720.5,179C 715.404,182.023 713.071,186.523 713.5,192.5C 711.174,193.145 709.507,194.478 708.5,196.5C 705.672,186.647 709.005,179.481 718.5,175C 737.579,169.171 747.245,176.004 747.5,195.5 Z"/></g>
<g><path style="opacity:1" fill="#5e67ee" d="M 637.5,173.5 C 640.124,175.568 643.124,176.901 646.5,177.5C 647.767,179.371 647.767,181.204 646.5,183C 643.92,184.144 641.253,184.978 638.5,185.5C 638.167,181.5 637.833,177.5 637.5,173.5 Z"/></g>
<g><path style="opacity:1" fill="#5a64ef" d="M 735.5,178.5 C 739.472,183.346 741.472,189.012 741.5,195.5C 739.708,195.366 738.042,195.699 736.5,196.5C 729.661,199.113 722.994,202.113 716.5,205.5C 716.443,204.391 716.11,203.391 715.5,202.5C 715.451,198.922 714.785,195.589 713.5,192.5C 713.071,186.523 715.404,182.023 720.5,179C 725.489,178.501 730.489,178.334 735.5,178.5 Z"/></g>
<g><path style="opacity:1" fill="#120b12" d="M 735.5,178.5 C 738.617,178.642 741.117,179.976 743,182.5C 744.158,186.775 744.992,191.109 745.5,195.5C 744.167,195.5 742.833,195.5 741.5,195.5C 741.472,189.012 739.472,183.346 735.5,178.5 Z"/></g>
<g><path style="opacity:1" fill="#fb78b9" d="M 461.5,200.5 C 453.783,200.705 446.116,201.372 438.5,202.5C 438.317,200.064 438.984,197.897 440.5,196C 445.575,194.809 450.741,193.976 456,193.5C 459.882,194.216 461.715,196.549 461.5,200.5 Z"/></g>
<g><path style="opacity:1" fill="#f8dd67" d="M 713.5,192.5 C 714.785,195.589 715.451,198.922 715.5,202.5C 713.5,202.833 711.5,203.167 709.5,203.5C 709.326,201.139 708.993,198.806 708.5,196.5C 709.507,194.478 711.174,193.145 713.5,192.5 Z"/></g>
<g><path style="opacity:1" fill="#f977bb" d="M 480.5,199.5 C 475.833,199.5 471.167,199.5 466.5,199.5C 469.977,195.18 474.31,194.347 479.5,197C 480.252,197.671 480.586,198.504 480.5,199.5 Z"/></g>
<g><path style="opacity:1" fill="#f8e15e" d="M 576.5,194.5 C 579.862,194.07 582.695,195.07 585,197.5C 586.327,201.853 584.827,204.52 580.5,205.5C 578.146,205.838 575.813,206.338 573.5,207C 571.59,207.408 570.59,208.575 570.5,210.5C 572.009,215.218 573.509,219.884 575,224.5C 578.901,221.514 582.067,222.18 584.5,226.5C 584.466,230.176 582.799,231.343 579.5,230C 580.594,231.78 581.594,233.614 582.5,235.5C 583.005,233.231 584.338,231.897 586.5,231.5C 588.176,236.444 587.176,240.778 583.5,244.5C 581.801,244.66 580.134,244.494 578.5,244C 576.877,241.92 575.377,239.754 574,237.5C 573.333,238.833 573.333,240.167 574,241.5C 576.127,243.114 577.627,245.114 578.5,247.5C 577.833,247.5 577.5,247.833 577.5,248.5C 573.052,248.226 570.219,245.892 569,241.5C 568.5,242 568,242.5 567.5,243C 568.69,246.25 570.69,248.75 573.5,250.5C 564.086,250.548 560.586,245.881 563,236.5C 564.236,235.601 565.07,234.434 565.5,233C 563.186,225.409 561.186,217.742 559.5,210C 559.925,205.484 561.925,201.817 565.5,199C 569.157,197.178 572.824,195.678 576.5,194.5 Z"/></g>
<g><path style="opacity:1" fill="#f677bc" d="M 499.5,199.5 C 494.833,199.5 490.167,199.5 485.5,199.5C 486.654,196.414 488.988,195.081 492.5,195.5C 495.941,195.05 498.275,196.383 499.5,199.5 Z"/></g>
<g><path style="opacity:1" fill="#8bd6fe" d="M 741.5,195.5 C 742.833,195.5 744.167,195.5 745.5,195.5C 746.167,195.5 746.833,195.5 747.5,195.5C 755.507,195.334 763.507,195.5 771.5,196C 773.627,199.884 774.627,204.051 774.5,208.5C 772.5,210.167 770.5,211.833 768.5,213.5C 765.328,215.252 762.328,217.252 759.5,219.5C 748.289,228.915 747.622,239.082 757.5,250C 760.336,252.584 763.669,253.751 767.5,253.5C 768.568,254.434 769.901,254.768 771.5,254.5C 774.997,255.402 778.663,256.069 782.5,256.5C 782.263,257.791 782.596,258.791 783.5,259.5C 784.601,264.773 785.267,270.106 785.5,275.5C 783.5,275.833 781.5,276.167 779.5,276.5C 769.82,276.518 760.153,276.852 750.5,277.5C 747.013,250.241 742.346,223.241 736.5,196.5C 738.042,195.699 739.708,195.366 741.5,195.5 Z"/></g>
<g><path style="opacity:1" fill="#4098f0" d="M 736.5,196.5 C 742.346,223.241 747.013,250.241 750.5,277.5C 728.223,284.479 705.89,291.145 683.5,297.5C 678.822,299.341 676.322,297.675 676,292.5C 671.593,271.984 668.593,251.318 667,230.5C 668.5,229 670,227.5 671.5,226C 684.522,220.155 697.522,214.321 710.5,208.5C 711.167,211.5 711.833,214.5 712.5,217.5C 709.63,218.433 707.296,220.1 705.5,222.5C 698.883,227.558 696.716,234.225 699,242.5C 701.053,248.72 705.22,252.72 711.5,254.5C 722.092,258.677 729.592,255.344 734,244.5C 736.565,234.702 734.065,226.536 726.5,220C 723.978,218.659 721.311,217.826 718.5,217.5C 717.196,213.64 716.529,209.64 716.5,205.5C 722.994,202.113 729.661,199.113 736.5,196.5 Z"/></g>
<g><path style="opacity:1" fill="#4296ef" d="M 825.5,244.5 C 824.662,244.158 824.328,243.492 824.5,242.5C 827.238,235.753 828.071,228.753 827,221.5C 826.626,219.509 825.793,217.842 824.5,216.5C 818.193,203.888 808.193,199.722 794.5,204C 787.462,207.535 782.795,213.035 780.5,220.5C 780.461,221.583 780.127,222.583 779.5,223.5C 777.096,224.35 774.763,225.35 772.5,226.5C 774.075,227.446 775.742,227.446 777.5,226.5C 778.713,226.747 779.38,227.414 779.5,228.5C 780.033,232.965 781.033,237.298 782.5,241.5C 786.444,249.462 792.778,253.795 801.5,254.5C 802.401,255.29 803.068,256.29 803.5,257.5C 801.393,258.468 799.059,258.802 796.5,258.5C 795.292,257.766 793.959,257.433 792.5,257.5C 789.455,257.492 786.455,257.159 783.5,256.5C 783.5,257.5 783.5,258.5 783.5,259.5C 782.596,258.791 782.263,257.791 782.5,256.5C 778.663,256.069 774.997,255.402 771.5,254.5C 772.675,254.719 773.675,254.386 774.5,253.5C 763.567,241.505 761.567,228.171 768.5,213.5C 770.5,211.833 772.5,210.167 774.5,208.5C 778.202,206.976 781.536,204.81 784.5,202C 796.546,195.704 808.212,196.371 819.5,204C 832.741,216.061 834.741,229.561 825.5,244.5 Z"/></g>
<g><path style="opacity:1" fill="#f681be" d="M 767.5,198.5 C 771.049,199.957 772.216,202.623 771,206.5C 767.718,207.911 765.884,206.745 765.5,203C 765.519,201.167 766.185,199.667 767.5,198.5 Z"/></g>
<g><path style="opacity:1" fill="#fbe25b" d="M 466.5,199.5 C 471.167,199.5 475.833,199.5 480.5,199.5C 482.167,199.5 483.833,199.5 485.5,199.5C 490.167,199.5 494.833,199.5 499.5,199.5C 509.516,199.946 519.516,200.612 529.5,201.5C 524.596,210.304 519.43,218.971 514,227.5C 513.501,222.336 512.001,217.503 509.5,213C 482.075,210.514 454.742,211.514 427.5,216C 426.376,216.839 425.709,218.006 425.5,219.5C 424.049,229.914 424.382,240.247 426.5,250.5C 452.35,246.568 478.35,244.735 504.5,245C 498.694,254.621 492.36,263.787 485.5,272.5C 478.476,272.608 471.476,273.108 464.5,274C 457.51,276.814 454.177,281.981 454.5,289.5C 453.209,289.263 452.209,289.596 451.5,290.5C 442.148,291.062 432.815,291.729 423.5,292.5C 423.296,289.482 422.963,286.482 422.5,283.5C 428.736,283.06 434.903,282.393 441,281.5C 439.964,274.199 438.797,266.865 437.5,259.5C 430.132,259.317 422.799,259.65 415.5,260.5C 414.573,251.527 413.906,242.527 413.5,233.5C 413.375,225.011 414.375,216.678 416.5,208.5C 417.749,206.864 419.416,205.697 421.5,205C 427.095,203.653 432.762,202.82 438.5,202.5C 446.116,201.372 453.783,200.705 461.5,200.5C 463.415,200.784 465.081,200.451 466.5,199.5 Z"/></g>
<g><path style="opacity:1" fill="#0089e4" d="M 118.5,201.5 C 160.717,199.678 190.217,218.011 207,256.5C 216.942,291.661 208.775,321.828 182.5,347C 146.719,372.977 111.053,372.977 75.5,347C 47.7842,319.969 40.2842,288.135 53,251.5C 66.3587,223.631 88.192,206.965 118.5,201.5 Z"/></g>
<g><path style="opacity:1" fill="#f977b6" d="M 715.5,202.5 C 716.11,203.391 716.443,204.391 716.5,205.5C 716.529,209.64 717.196,213.64 718.5,217.5C 718.649,223.114 720.482,228.114 724,232.5C 725.432,239.212 724.265,245.379 720.5,251C 717.928,253.287 714.928,254.453 711.5,254.5C 705.22,252.72 701.053,248.72 699,242.5C 696.716,234.225 698.883,227.558 705.5,222.5C 707.764,221.781 710.097,221.448 712.5,221.5C 712.5,220.167 712.5,218.833 712.5,217.5C 711.833,214.5 711.167,211.5 710.5,208.5C 710.634,206.708 710.301,205.042 709.5,203.5C 711.5,203.167 713.5,202.833 715.5,202.5 Z"/></g>
<g><path style="opacity:1" fill="#f5f6f7" d="M 824.5,216.5 C 819.742,215.586 816.242,212.919 814,208.5C 812.383,212.897 809.883,216.731 806.5,220C 804.365,220.635 802.365,220.301 800.5,219C 798.549,215.91 796.049,213.41 793,211.5C 790.522,213.978 788.022,216.478 785.5,219C 783.975,220.009 782.308,220.509 780.5,220.5C 782.795,213.035 787.462,207.535 794.5,204C 808.193,199.722 818.193,203.888 824.5,216.5 Z"/></g>
<g><path style="opacity:1" fill="#d31d86" d="M 593.5,206.5 C 595.335,207.122 596.502,208.456 597,210.5C 599.116,215.733 600.949,221.066 602.5,226.5C 601.929,228.741 600.596,230.408 598.5,231.5C 595.559,226.14 593.059,220.474 591,214.5C 590.333,212.833 590.333,211.167 591,209.5C 592.417,208.922 593.25,207.922 593.5,206.5 Z"/></g>
<g><path style="opacity:1" fill="#89d3fe" d="M 364.5,207.5 C 365.117,207.611 365.617,207.944 366,208.5C 365.372,215.737 367.872,221.57 373.5,226C 370.958,228.882 368.791,232.048 367,235.5C 366.654,238.576 365.988,241.576 365,244.5C 364.611,236.888 361.444,230.722 355.5,226C 361.83,221.537 364.83,215.371 364.5,207.5 Z"/></g>
<g><path style="opacity:1" fill="#070507" d="M 824.5,216.5 C 825.793,217.842 826.626,219.509 827,221.5C 828.071,228.753 827.238,235.753 824.5,242.5C 817.119,232.309 807.119,227.143 794.5,227C 803.778,231.278 810.778,237.945 815.5,247C 815,247.5 814.5,248 814,248.5C 808.169,236.665 798.836,229.332 786,226.5C 783.711,226.875 781.545,227.541 779.5,228.5C 779.38,227.414 778.713,226.747 777.5,226.5C 775.742,227.446 774.075,227.446 772.5,226.5C 774.763,225.35 777.096,224.35 779.5,223.5C 780.127,222.583 780.461,221.583 780.5,220.5C 782.308,220.509 783.975,220.009 785.5,219C 788.022,216.478 790.522,213.978 793,211.5C 796.049,213.41 798.549,215.91 800.5,219C 802.365,220.301 804.365,220.635 806.5,220C 809.883,216.731 812.383,212.897 814,208.5C 816.242,212.919 819.742,215.586 824.5,216.5 Z"/></g>
<g><path style="opacity:1" fill="#6f92f8" d="M 472.5,212.5 C 481.839,212.334 491.173,212.5 500.5,213C 511.464,217.229 514.631,224.729 510,235.5C 508.5,238.333 506.333,240.5 503.5,242C 483.195,243.387 462.861,244.887 442.5,246.5C 432.094,246.594 426.76,241.427 426.5,231C 426.026,227.708 427.026,225.041 429.5,223C 443.372,217.13 457.705,213.63 472.5,212.5 Z"/></g>
<g><path style="opacity:1" fill="#181dab" d="M 768.5,213.5 C 761.567,228.171 763.567,241.505 774.5,253.5C 773.675,254.386 772.675,254.719 771.5,254.5C 769.901,254.768 768.568,254.434 767.5,253.5C 758.747,243.708 756.081,232.374 759.5,219.5C 762.328,217.252 765.328,215.252 768.5,213.5 Z"/></g>
<g><path style="opacity:1" fill="#b6ccff" d="M 466.5,217.5 C 474.585,217.099 482.585,217.599 490.5,219C 491.126,219.75 491.626,220.584 492,221.5C 492.667,225.833 492.667,230.167 492,234.5C 491.167,235.333 490.333,236.167 489.5,237C 481.298,237.211 473.131,237.711 465,238.5C 462.541,238.11 460.874,236.776 460,234.5C 459.333,229.833 459.333,225.167 460,220.5C 462.045,219.074 464.212,218.074 466.5,217.5 Z"/></g>
<g><path style="opacity:1" fill="#050406" d="M 718.5,217.5 C 721.311,217.826 723.978,218.659 726.5,220C 734.065,226.536 736.565,234.702 734,244.5C 729.592,255.344 722.092,258.677 711.5,254.5C 714.928,254.453 717.928,253.287 720.5,251C 724.265,245.379 725.432,239.212 724,232.5C 720.482,228.114 718.649,223.114 718.5,217.5 Z"/></g>
<g><path style="opacity:1" fill="#18161e" d="M 712.5,217.5 C 712.5,218.833 712.5,220.167 712.5,221.5C 710.097,221.448 707.764,221.781 705.5,222.5C 707.296,220.1 709.63,218.433 712.5,217.5 Z"/></g>
<g><path style="opacity:1" fill="#fce258" d="M 532.5,205.5 C 537.924,219.284 540.924,233.617 541.5,248.5C 536.009,248.521 531.009,250.021 526.5,253C 523.543,257.08 520.71,261.247 518,265.5C 515.592,267.956 512.759,269.789 509.5,271C 503.509,271.499 497.509,271.666 491.5,271.5C 496.838,263.317 502.005,254.983 507,246.5C 509.481,244.686 512.315,244.02 515.5,244.5C 515.334,240.154 515.501,235.821 516,231.5C 520.667,223.5 525.333,215.5 530,207.5C 530.708,206.619 531.542,205.953 532.5,205.5 Z"/></g>
<g><path style="opacity:1" fill="#4097f0" d="M 759.5,219.5 C 756.081,232.374 758.747,243.708 767.5,253.5C 763.669,253.751 760.336,252.584 757.5,250C 747.622,239.082 748.289,228.915 759.5,219.5 Z"/></g>
<g><path style="opacity:1" fill="#06070d" d="M 499.5,223.5 C 503.539,222.66 506.539,223.993 508.5,227.5C 508,227.833 507.5,228.167 507,228.5C 504.147,225.908 501.314,225.908 498.5,228.5C 497.799,226.808 498.133,225.142 499.5,223.5 Z"/></g>
<g><path style="opacity:1" fill="#10111a" d="M 448.5,225.5 C 453.102,225.428 455.102,227.428 454.5,231.5C 451.132,228.624 448.132,228.957 445.5,232.5C 444.386,231.277 444.219,229.944 445,228.5C 446.145,227.364 447.312,226.364 448.5,225.5 Z"/></g>
<g><path style="opacity:1" fill="#e6439c" d="M 824.5,242.5 C 824.328,243.492 824.662,244.158 825.5,244.5C 829.562,251.447 830.395,258.78 828,266.5C 824.026,273.076 818.526,274.91 811.5,272C 808.41,267.314 805.744,262.48 803.5,257.5C 803.068,256.29 802.401,255.29 801.5,254.5C 797.051,247.44 790.718,243.107 782.5,241.5C 781.033,237.298 780.033,232.965 779.5,228.5C 781.545,227.541 783.711,226.875 786,226.5C 798.836,229.332 808.169,236.665 814,248.5C 814.5,248 815,247.5 815.5,247C 810.778,237.945 803.778,231.278 794.5,227C 807.119,227.143 817.119,232.309 824.5,242.5 Z"/></g>
<g><path style="opacity:1" fill="#1c1914" d="M 584.5,226.5 C 586.256,227.552 586.923,229.219 586.5,231.5C 584.338,231.897 583.005,233.231 582.5,235.5C 581.594,233.614 580.594,231.78 579.5,230C 582.799,231.343 584.466,230.176 584.5,226.5 Z"/></g>
<g><path style="opacity:1" fill="#ce1882" d="M 642.5,231.5 C 642.5,234.833 642.5,238.167 642.5,241.5C 636.058,237.696 629.058,236.529 621.5,238C 615.096,239.199 609.096,241.532 603.5,245C 601.21,246.777 599.543,248.944 598.5,251.5C 596.654,248.46 595.321,245.127 594.5,241.5C 608.839,230.365 624.839,227.032 642.5,231.5 Z"/></g>
<g><path style="opacity:1" fill="#fcf8fa" d="M 704.5,229.5 C 714.044,229.868 717.877,234.868 716,244.5C 710.547,252.616 705.547,252.282 701,243.5C 699.608,238.093 700.774,233.426 704.5,229.5 Z"/></g>
<g><path style="opacity:1" fill="#6c91ff" d="M 469.5,231.5 C 471.75,231.181 473.75,231.681 475.5,233C 473.317,234.694 470.984,234.861 468.5,233.5C 468.863,232.817 469.196,232.15 469.5,231.5 Z"/></g>
<g><path style="opacity:1" fill="#191919" d="M 707.5,231.5 C 711.8,231.815 713.467,234.149 712.5,238.5C 708.008,238.026 706.341,235.693 707.5,231.5 Z"/></g>
<g><path style="opacity:1" fill="#d9765f" d="M 398.5,231.5 C 398.5,232.833 398.5,234.167 398.5,235.5C 399.833,235.5 401.167,235.5 402.5,235.5C 401.081,236.451 399.415,236.784 397.5,236.5C 397.216,234.585 397.549,232.919 398.5,231.5 Z"/></g>
<g><path style="opacity:1" fill="#ce1981" d="M 402.5,235.5 C 408.499,235.002 410.666,237.669 409,243.5C 405.989,245.941 402.489,247.107 398.5,247C 397.577,249.041 397.244,251.208 397.5,253.5C 393.534,251.679 390.201,252.346 387.5,255.5C 386.349,250.35 386.183,245.016 387,239.5C 389.897,236.769 393.397,235.769 397.5,236.5C 399.415,236.784 401.081,236.451 402.5,235.5 Z"/></g>
<g><path style="opacity:1" fill="#040105" d="M 642.5,241.5 C 643.778,243.544 643.612,245.544 642,247.5C 639.438,249.346 637.271,251.513 635.5,254C 636.391,256.279 637.391,258.446 638.5,260.5C 637.127,260.343 635.793,260.51 634.5,261C 633.211,262.802 631.544,263.969 629.5,264.5C 628.828,261.658 627.494,259.158 625.5,257C 623.893,257.019 622.226,257.185 620.5,257.5C 620.5,260.5 620.5,263.5 620.5,266.5C 617.838,264.732 614.838,264.065 611.5,264.5C 610.539,262.735 610.205,260.735 610.5,258.5C 606.869,258.84 603.536,258.006 600.5,256C 598.963,254.89 598.297,253.39 598.5,251.5C 599.543,248.944 601.21,246.777 603.5,245C 609.096,241.532 615.096,239.199 621.5,238C 629.058,236.529 636.058,237.696 642.5,241.5 Z"/></g>
<g><path style="opacity:1" fill="#1c1913" d="M 583.5,244.5 C 584.376,244.369 585.043,244.702 585.5,245.5C 583.157,246.275 580.823,246.942 578.5,247.5C 577.627,245.114 576.127,243.114 574,241.5C 573.333,240.167 573.333,238.833 574,237.5C 575.377,239.754 576.877,241.92 578.5,244C 580.134,244.494 581.801,244.66 583.5,244.5 Z"/></g>
<g><path style="opacity:1" fill="#12111f" d="M 79.5,244.5 C 78.8333,245.833 77.8333,246.833 76.5,247.5C 73.747,245.581 73.9137,243.915 77,242.5C 78.301,242.639 79.1344,243.305 79.5,244.5 Z"/></g>
<g><path style="opacity:1" fill="#0a080e" d="M 782.5,241.5 C 790.718,243.107 797.051,247.44 801.5,254.5C 792.778,253.795 786.444,249.462 782.5,241.5 Z"/></g>
<g><path style="opacity:1" fill="#86efbf" d="M 79.5,244.5 C 88.4005,244.735 91.4005,249.069 88.5,257.5C 87.2905,257.932 86.2905,258.599 85.5,259.5C 76.7113,259.938 73.7113,255.938 76.5,247.5C 77.8333,246.833 78.8333,245.833 79.5,244.5 Z"/></g>
<g><path style="opacity:1" fill="#cd2584" d="M 79.5,246.5 C 80.8333,246.5 82.1667,246.5 83.5,246.5C 83.0468,251.346 81.0468,252.346 77.5,249.5C 78.1925,248.482 78.8592,247.482 79.5,246.5 Z"/></g>
<g><path style="opacity:1" fill="#1d1a14" d="M 577.5,248.5 C 578.473,248.987 579.473,249.487 580.5,250C 578.19,250.497 575.857,250.663 573.5,250.5C 570.69,248.75 568.69,246.25 567.5,243C 568,242.5 568.5,242 569,241.5C 570.219,245.892 573.052,248.226 577.5,248.5 Z"/></g>
<g><path style="opacity:1" fill="#fbc31c" d="M 541.5,248.5 C 542.599,259.466 542.765,270.466 542,281.5C 541.082,283.376 539.582,284.376 537.5,284.5C 519.804,285.407 502.138,286.74 484.5,288.5C 482.5,288.167 480.5,287.833 478.5,287.5C 482.887,282.123 487.22,276.79 491.5,271.5C 497.509,271.666 503.509,271.499 509.5,271C 512.759,269.789 515.592,267.956 518,265.5C 520.71,261.247 523.543,257.08 526.5,253C 531.009,250.021 536.009,248.521 541.5,248.5 Z"/></g>
<g><path style="opacity:1" fill="#fbc523" d="M 124.5,254.5 C 125.552,254.351 126.552,254.517 127.5,255C 123.298,258.867 119.465,263.033 116,267.5C 115.253,271.55 116.753,272.883 120.5,271.5C 125.577,265.088 131.577,259.755 138.5,255.5C 142.052,256.276 145.386,257.609 148.5,259.5C 146.571,261.148 144.571,262.815 142.5,264.5C 141.24,266.353 141.24,268.186 142.5,270C 143.5,270.667 144.5,270.667 145.5,270C 149.454,266.192 154.121,264.025 159.5,263.5C 169.046,264.611 175.712,269.611 179.5,278.5C 179.145,279.522 178.478,280.189 177.5,280.5C 145.833,280.5 114.167,280.5 82.5,280.5C 82.0254,277.361 82.8587,274.361 85,271.5C 86.6993,269.304 88.5327,267.304 90.5,265.5C 91.1667,265.167 91.8333,264.833 92.5,264.5C 94.8292,262.722 97.4958,261.722 100.5,261.5C 97.5371,264.659 97.8704,267.326 101.5,269.5C 105.548,266.119 109.215,262.452 112.5,258.5C 116.155,256.171 120.155,254.837 124.5,254.5 Z"/></g>
<g><path style="opacity:1" fill="#f9eaa3" d="M 124.5,254.5 C 129.262,253.109 133.928,253.442 138.5,255.5C 131.577,259.755 125.577,265.088 120.5,271.5C 116.753,272.883 115.253,271.55 116,267.5C 119.465,263.033 123.298,258.867 127.5,255C 126.552,254.517 125.552,254.351 124.5,254.5 Z"/></g>
<g><path style="opacity:1" fill="#5663ee" d="M 792.5,257.5 C 793.957,265.198 793.79,272.864 792,280.5C 786.332,292.505 780.166,304.172 773.5,315.5C 768.981,312.071 764.648,308.404 760.5,304.5C 758,301.168 755,298.334 751.5,296C 755.418,293.523 756.751,290.19 755.5,286C 763.606,282.913 771.606,279.747 779.5,276.5C 781.5,276.167 783.5,275.833 785.5,275.5C 785.267,270.106 784.601,264.773 783.5,259.5C 783.5,258.5 783.5,257.5 783.5,256.5C 786.455,257.159 789.455,257.492 792.5,257.5 Z"/></g>
<g><path style="opacity:1" fill="#5663ed" d="M 397.5,259.5 C 398.942,273.934 402.275,287.934 407.5,301.5C 408.325,302.386 409.325,302.719 410.5,302.5C 424.814,301.484 439.147,300.817 453.5,300.5C 453.756,302.937 454.423,305.271 455.5,307.5C 440.456,323.329 422.122,333.496 400.5,338C 382.642,340.803 374.475,333.303 376,315.5C 379.5,307.34 383.833,299.674 389,292.5C 393.102,280.754 395.436,268.754 396,256.5C 396.232,257.737 396.732,258.737 397.5,259.5 Z"/></g>
<g><path style="opacity:1" fill="#0c0c15" d="M 88.5,257.5 C 89.8333,259.833 91.1667,262.167 92.5,264.5C 91.8333,264.833 91.1667,265.167 90.5,265.5C 88.823,263.46 87.1563,261.46 85.5,259.5C 86.2905,258.599 87.2905,257.932 88.5,257.5 Z"/></g>
<g><path style="opacity:1" fill="#0c0b17" d="M 792.5,257.5 C 793.959,257.433 795.292,257.766 796.5,258.5C 798.987,265.085 799.154,271.751 797,278.5C 794.883,284.736 792.216,290.736 789,296.5C 784.177,303.482 780.011,310.816 776.5,318.5C 775.167,317.833 774.167,316.833 773.5,315.5C 780.166,304.172 786.332,292.505 792,280.5C 793.79,272.864 793.957,265.198 792.5,257.5 Z"/></g>
<g><path style="opacity:1" fill="#64bafe" d="M 688.5,258.5 C 690.911,258.137 692.411,259.137 693,261.5C 693.498,264.817 693.665,268.15 693.5,271.5C 689.187,272.326 685.02,273.66 681,275.5C 677.889,272.112 676.889,268.112 678,263.5C 681.628,261.912 685.128,260.246 688.5,258.5 Z"/></g>
<g><path style="opacity:1" fill="#f8e8a1" d="M 112.5,258.5 C 109.215,262.452 105.548,266.119 101.5,269.5C 97.8704,267.326 97.5371,264.659 100.5,261.5C 104.431,260.689 108.431,259.689 112.5,258.5 Z"/></g>
<g><path style="opacity:1" fill="#f9e99f" d="M 148.5,259.5 C 152.242,260.837 155.909,262.171 159.5,263.5C 154.121,264.025 149.454,266.192 145.5,270C 144.5,270.667 143.5,270.667 142.5,270C 141.24,268.186 141.24,266.353 142.5,264.5C 144.571,262.815 146.571,261.148 148.5,259.5 Z"/></g>
<g><path style="opacity:1" fill="#1618a8" d="M 638.5,260.5 C 642.75,266.663 646.25,273.33 649,280.5C 649.363,294.202 649.03,307.869 648,321.5C 652.561,317.134 657.728,313.634 663.5,311C 666.5,310.333 669.5,310.333 672.5,311C 673.056,311.383 673.389,311.883 673.5,312.5C 670.575,312.46 667.909,313.293 665.5,315C 659.877,318.955 654.543,323.288 649.5,328C 645.601,330.448 641.601,332.615 637.5,334.5C 636.837,332.527 636.504,330.361 636.5,328C 638.192,312.53 639.026,297.03 639,281.5C 636.006,275.689 632.839,270.022 629.5,264.5C 631.544,263.969 633.211,262.802 634.5,261C 635.793,260.51 637.127,260.343 638.5,260.5 Z"/></g>
<g><path style="opacity:1" fill="#fdc31f" d="M 416.5,208.5 C 414.375,216.678 413.375,225.011 413.5,233.5C 413.906,242.527 414.573,251.527 415.5,260.5C 422.799,259.65 430.132,259.317 437.5,259.5C 438.797,266.865 439.964,274.199 441,281.5C 434.903,282.393 428.736,283.06 422.5,283.5C 422.963,286.482 423.296,289.482 423.5,292.5C 419.167,295.833 414.833,299.167 410.5,302.5C 409.325,302.719 408.325,302.386 407.5,301.5C 402.275,287.934 398.942,273.934 397.5,259.5C 397.5,257.5 397.5,255.5 397.5,253.5C 397.244,251.208 397.577,249.041 398.5,247C 402.489,247.107 405.989,245.941 409,243.5C 410.666,237.669 408.499,235.002 402.5,235.5C 401.167,235.5 399.833,235.5 398.5,235.5C 398.5,234.167 398.5,232.833 398.5,231.5C 398.372,229.345 398.872,227.345 400,225.5C 405.004,219.33 410.504,213.663 416.5,208.5 Z"/></g>
<g><path style="opacity:1" fill="#ffe65a" d="M 419.5,261.5 C 424.833,261.5 430.167,261.5 435.5,261.5C 436.14,267.511 437.473,273.344 439.5,279C 433.15,279.788 426.817,280.621 420.5,281.5C 419.325,275.275 417.991,269.109 416.5,263C 417.737,262.768 418.737,262.268 419.5,261.5 Z"/></g>
<g><path style="opacity:1" fill="#1517a7" d="M 611.5,264.5 C 614.838,264.065 617.838,264.732 620.5,266.5C 620.758,292.225 615.425,316.558 604.5,339.5C 597.405,330.901 589.738,322.735 581.5,315C 579.975,313.991 578.308,313.491 576.5,313.5C 581.532,309.685 586.865,309.518 592.5,313C 595.704,315.869 598.537,319.035 601,322.5C 608.037,303.815 611.537,284.482 611.5,264.5 Z"/></g>
<g><path style="opacity:1" fill="#f7c11b" d="M 485.5,272.5 C 481.909,278.098 477.909,283.431 473.5,288.5C 466.216,289.718 458.882,290.385 451.5,290.5C 452.209,289.596 453.209,289.263 454.5,289.5C 454.177,281.981 457.51,276.814 464.5,274C 471.476,273.108 478.476,272.608 485.5,272.5 Z"/></g>
<g><path style="opacity:1" fill="#64bafe" d="M 691.5,274.5 C 693.144,274.286 694.644,274.62 696,275.5C 697.106,279.122 697.439,282.789 697,286.5C 692.412,288.689 687.579,290.022 682.5,290.5C 681.916,286.768 681.416,283.102 681,279.5C 684.422,277.534 687.922,275.867 691.5,274.5 Z"/></g>
<g><path style="opacity:1" fill="#040609" d="M 779.5,276.5 C 771.606,279.747 763.606,282.913 755.5,286C 756.751,290.19 755.418,293.523 751.5,296C 755,298.334 758,301.168 760.5,304.5C 756.202,306.752 754.202,310.419 754.5,315.5C 753.167,314.5 751.833,313.5 750.5,312.5C 749.382,306.907 746.049,305.074 740.5,307C 738.677,307.997 737.01,309.164 735.5,310.5C 734.732,309.737 734.232,308.737 734,307.5C 733.256,309.9 732.423,312.233 731.5,314.5C 730.778,314.918 730.278,315.584 730,316.5C 728.058,311.717 724.558,309.717 719.5,310.5C 719.938,308.874 720.272,307.207 720.5,305.5C 719.283,302.933 717.616,300.6 715.5,298.5C 704.854,297.501 694.187,297.168 683.5,297.5C 705.89,291.145 728.223,284.479 750.5,277.5C 760.153,276.852 769.82,276.518 779.5,276.5 Z"/></g>
<g><path style="opacity:1" fill="#87f7c0" d="M 184.5,290.5 C 180.705,290.054 177.038,289.054 173.5,287.5C 167.978,289.696 162.311,291.362 156.5,292.5C 150.215,291.275 144.049,289.608 138,287.5C 133.609,290.061 129.109,292.395 124.5,294.5C 122.701,294.423 121.034,293.923 119.5,293C 116.651,289.984 113.651,287.15 110.5,284.5C 107.966,288.712 104.633,292.212 100.5,295C 98.5,295.667 96.5,295.667 94.5,295C 93.9437,292.763 92.9437,290.763 91.5,289C 85.9999,288.151 80.6665,288.651 75.5,290.5C 70.9538,290.732 66.6205,289.899 62.5,288C 57.9289,282.713 59.0955,279.547 66,278.5C 71.3495,280.154 76.8495,280.821 82.5,280.5C 114.167,280.5 145.833,280.5 177.5,280.5C 179.628,281.629 181.961,281.796 184.5,281C 187.468,278.683 190.801,277.183 194.5,276.5C 196.374,276.39 197.874,277.056 199,278.5C 200.82,284.702 198.653,288.535 192.5,290C 189.854,290.497 187.187,290.664 184.5,290.5 Z"/></g>
<g><path style="opacity:1" fill="#fd79b8" d="M 184.5,290.5 C 185.902,297.714 183.236,302.381 176.5,304.5C 176.768,306.099 176.434,307.432 175.5,308.5C 175.5,307.5 175.5,306.5 175.5,305.5C 144.833,305.5 114.167,305.5 83.5,305.5C 76.916,302.669 74.2493,297.669 75.5,290.5C 80.6665,288.651 85.9999,288.151 91.5,289C 92.9437,290.763 93.9437,292.763 94.5,295C 96.5,295.667 98.5,295.667 100.5,295C 104.633,292.212 107.966,288.712 110.5,284.5C 113.651,287.15 116.651,289.984 119.5,293C 121.034,293.923 122.701,294.423 124.5,294.5C 129.109,292.395 133.609,290.061 138,287.5C 144.049,289.608 150.215,291.275 156.5,292.5C 162.311,291.362 167.978,289.696 173.5,287.5C 177.038,289.054 180.705,290.054 184.5,290.5 Z"/></g>
<g><path style="opacity:1" fill="#57ed89" d="M 760.5,304.5 C 764.648,308.404 768.981,312.071 773.5,315.5C 774.167,316.833 775.167,317.833 776.5,318.5C 779.479,322.146 782.812,325.479 786.5,328.5C 789.608,325.133 792.608,321.633 795.5,318C 796.448,317.517 797.448,317.351 798.5,317.5C 798.386,327.559 795.052,336.393 788.5,344C 786.365,344.635 784.365,344.301 782.5,343C 778.964,339.296 775.298,335.796 771.5,332.5C 770.5,330.833 769.167,329.5 767.5,328.5C 762.86,324.527 758.527,320.194 754.5,315.5C 754.202,310.419 756.202,306.752 760.5,304.5 Z"/></g>
<g><path style="opacity:1" fill="#fef0a3" d="M 83.5,305.5 C 114.167,305.5 144.833,305.5 175.5,305.5C 175.5,306.5 175.5,307.5 175.5,308.5C 168.671,307.114 163.005,308.947 158.5,314C 152.967,316.411 147.967,315.578 143.5,311.5C 138.55,314.35 134.216,313.516 130.5,309C 122.833,308.833 115.167,308.667 107.5,308.5C 99.4697,308.502 91.803,309.169 84.5,310.5C 83.5489,309.081 83.2155,307.415 83.5,305.5 Z"/></g>
<g><path style="opacity:1" fill="#57ec89" d="M 750.5,312.5 C 751.753,318.345 753.086,324.179 754.5,330C 754.195,334.586 752.528,338.586 749.5,342C 745.324,344.588 741.324,347.421 737.5,350.5C 740.153,354.461 741.82,358.794 742.5,363.5C 734.809,359.981 728.809,354.481 724.5,347C 729.301,341.869 734.468,337.035 740,332.5C 740.667,330.167 740.667,327.833 740,325.5C 738.59,320.441 737.09,315.441 735.5,310.5C 737.01,309.164 738.677,307.997 740.5,307C 746.049,305.074 749.382,306.907 750.5,312.5 Z"/></g>
<g><path style="opacity:1" fill="#f875b6" d="M 508.5,307.5 C 510.32,311.14 512.153,314.807 514,318.5C 516.215,330.121 511.382,335.788 499.5,335.5C 494.94,334.217 490.94,331.883 487.5,328.5C 487.5,327.167 488.167,326.5 489.5,326.5C 492.548,330.524 496.548,332.024 501.5,331C 502.056,330.617 502.389,330.117 502.5,329.5C 502.663,327.143 502.497,324.81 502,322.5C 499.863,317.916 498.029,313.25 496.5,308.5C 500.5,308.167 504.5,307.833 508.5,307.5 Z"/></g>
<g><path style="opacity:1" fill="#fac224" d="M 175.5,308.5 C 174.081,313.754 170.748,317.254 165.5,319C 141.5,319.667 117.5,319.667 93.5,319C 89.3209,317.319 86.3209,314.485 84.5,310.5C 91.803,309.169 99.4697,308.502 107.5,308.5C 115.167,308.667 122.833,308.833 130.5,309C 134.216,313.516 138.55,314.35 143.5,311.5C 147.967,315.578 152.967,316.411 158.5,314C 163.005,308.947 168.671,307.114 175.5,308.5 Z"/></g>
<g><path style="opacity:1" fill="#57ed89" d="M 719.5,310.5 C 724.558,309.717 728.058,311.717 730,316.5C 730.278,315.584 730.778,314.918 731.5,314.5C 729.503,322.325 727.003,329.992 724,337.5C 716.399,344.608 708.232,345.275 699.5,339.5C 696.345,345.667 693.011,351.667 689.5,357.5C 688.914,357.291 688.414,356.957 688,356.5C 687.833,352.167 687.667,347.833 687.5,343.5C 687.386,338.391 687.886,333.391 689,328.5C 689.804,327.196 690.971,326.529 692.5,326.5C 697.663,327.875 702.663,329.708 707.5,332C 710.636,333.041 713.136,332.207 715,329.5C 716.663,323.183 718.163,316.849 719.5,310.5 Z"/></g>
<g><path style="opacity:1" fill="#f774b5" d="M 472.5,312.5 C 476.275,318.524 477.442,325.191 476,332.5C 473.596,336.567 470.096,338.9 465.5,339.5C 458.871,340.354 454.871,337.521 453.5,331C 452.423,330.53 451.423,330.697 450.5,331.5C 450.738,329.596 451.738,328.262 453.5,327.5C 455.636,329.812 457.636,332.312 459.5,335C 460.793,335.49 462.127,335.657 463.5,335.5C 463.736,332.391 463.403,329.391 462.5,326.5C 461.424,321.939 459.757,317.605 457.5,313.5C 462.507,313.249 467.507,312.916 472.5,312.5 Z"/></g>
<g><path style="opacity:1" fill="#020107" d="M 673.5,312.5 C 675.658,318.553 673.992,323.386 668.5,327C 659.442,332.417 649.609,335.584 639,336.5C 637.97,336.164 637.47,335.497 637.5,334.5C 641.601,332.615 645.601,330.448 649.5,328C 654.543,323.288 659.877,318.955 665.5,315C 667.909,313.293 670.575,312.46 673.5,312.5 Z"/></g>
<g><path style="opacity:1" fill="#030309" d="M 576.5,313.5 C 578.308,313.491 579.975,313.991 581.5,315C 589.738,322.735 597.405,330.901 604.5,339.5C 601.747,340.659 599.081,340.159 596.5,338C 588.034,332.864 580.867,326.364 575,318.5C 574.387,316.505 574.887,314.838 576.5,313.5 Z"/></g>
<g><path style="opacity:1" fill="#0b060b" d="M 462.5,326.5 C 463.403,329.391 463.736,332.391 463.5,335.5C 462.127,335.657 460.793,335.49 459.5,335C 457.636,332.312 455.636,329.812 453.5,327.5C 456.287,326.523 459.287,326.19 462.5,326.5 Z"/></g>
<g><path style="opacity:1" fill="#0e0913" d="M 489.5,326.5 C 491.628,325.371 493.961,325.204 496.5,326C 498.388,327.394 500.388,328.56 502.5,329.5C 502.389,330.117 502.056,330.617 501.5,331C 496.548,332.024 492.548,330.524 489.5,326.5 Z"/></g>
<g><path style="opacity:1" fill="#e946a0" d="M 487.5,328.5 C 490.94,331.883 494.94,334.217 499.5,335.5C 498.307,335.97 497.64,336.97 497.5,338.5C 498.554,341.801 499.054,345.135 499,348.5C 494.517,350.302 490.517,349.635 487,346.5C 486.181,340.319 486.347,334.319 487.5,328.5 Z"/></g>
<g><path style="opacity:1" fill="#e945a0" d="M 465.5,339.5 C 466.093,344.272 467.093,348.939 468.5,353.5C 464.154,353.666 459.821,353.499 455.5,353C 453.036,350.356 451.536,347.19 451,343.5C 450.501,339.514 450.334,335.514 450.5,331.5C 451.423,330.697 452.423,330.53 453.5,331C 454.871,337.521 458.871,340.354 465.5,339.5 Z"/></g>
<g><path style="opacity:1" fill="#f4f5fe" d="M 849.5,333.5 C 851.217,336.845 852.717,340.512 854,344.5C 855.074,345.618 856.24,346.618 857.5,347.5C 853.041,351.085 850.707,355.752 850.5,361.5C 850.293,355.752 847.959,351.085 843.5,347.5C 848.224,344.047 850.224,339.38 849.5,333.5 Z"/></g>
<g><path style="opacity:1" fill="#4f5cec" d="M 437.5,376.5 C 462.836,376.333 488.169,376.5 513.5,377C 530.971,378.682 548.471,379.849 566,380.5C 592.163,379.539 618.329,379.372 644.5,380C 657.617,381.754 670.783,382.92 684,383.5C 714.161,382.44 744.328,382.274 774.5,383C 786.254,383.76 797.921,385.094 809.5,387C 808.377,388.044 807.044,388.71 805.5,389C 759.352,392.151 713.186,392.318 667,389.5C 627.986,392.199 588.986,391.866 550,388.5C 507.513,392.231 465.013,392.398 422.5,389C 415.826,388.084 409.326,386.584 403,384.5C 402.833,384.167 402.667,383.833 402.5,383.5C 403.665,382.416 404.998,381.583 406.5,381C 416.876,379.018 427.209,377.518 437.5,376.5 Z"/></g>
<g><path style="opacity:1" fill="#fdfdfd" d="M 95.5,388.5 C 119.544,388.05 143.544,388.55 167.5,390C 191.967,396.135 206.467,411.635 211,436.5C 211.667,458.833 211.667,481.167 211,503.5C 206.813,530.685 191.313,547.185 164.5,553C 140.5,553.667 116.5,553.667 92.5,553C 65.9716,547.472 50.805,531.305 47,504.5C 46.0383,479.45 46.3716,454.45 48,429.5C 55.7911,406.376 71.6245,392.709 95.5,388.5 Z"/></g>
<g><path style="opacity:1" fill="#fafbfb" d="M 4.5,402.5 C 10.3328,403.497 14.1661,406.831 16,412.5C 16.6667,451.167 16.6667,489.833 16,528.5C 14.0459,535.287 9.54592,538.954 2.5,539.5C 1.83836,493.488 2.50503,447.821 4.5,402.5 Z"/></g>
<g><path style="opacity:1" fill="#14171f" d="M 251.5,410.5 C 486.5,410.5 721.5,410.5 956.5,410.5C 956.5,462.5 956.5,514.5 956.5,566.5C 721.5,566.5 486.5,566.5 251.5,566.5C 251.5,514.5 251.5,462.5 251.5,410.5 Z"/></g>
<g><path style="opacity:1" fill="#fa6ef5" d="M 128.5,414.5 C 128.5,422.167 128.5,429.833 128.5,437.5C 123.167,443.167 117.833,448.833 112.5,454.5C 111.833,465.674 111.167,477.007 110.5,488.5C 105.751,490.305 101.085,492.305 96.5,494.5C 95.5006,478.848 95.1673,463.181 95.5,447.5C 106.167,436.167 117.167,425.167 128.5,414.5 Z"/></g>
<g><path style="opacity:1" fill="#feadfa" d="M 162.5,447.5 C 156.914,450.029 151.247,452.362 145.5,454.5C 144.5,452.833 143.167,451.5 141.5,450.5C 137.5,445.833 133.167,441.5 128.5,437.5C 128.5,429.833 128.5,422.167 128.5,414.5C 140.166,424.49 151.5,435.49 162.5,447.5 Z"/></g>
<g><path style="opacity:1" fill="#fecef9" d="M 128.5,437.5 C 133.167,441.5 137.5,445.833 141.5,450.5C 131.553,459.111 121.886,468.111 112.5,477.5C 112.5,469.833 112.5,462.167 112.5,454.5C 117.833,448.833 123.167,443.167 128.5,437.5 Z"/></g>
<g><path style="opacity:1" fill="#f96ff5" d="M 162.5,447.5 C 162.667,463.503 162.5,479.503 162,495.5C 151.298,506.369 140.465,517.035 129.5,527.5C 128.508,520.018 128.175,512.352 128.5,504.5C 134.131,499.37 139.631,494.036 145,488.5C 145.499,484.848 145.665,481.182 145.5,477.5C 145.5,474.167 145.5,470.833 145.5,467.5C 145.5,463.5 145.5,459.5 145.5,455.5C 145.5,455.167 145.5,454.833 145.5,454.5C 151.247,452.362 156.914,450.029 162.5,447.5 Z"/></g>
<g><path style="opacity:1" fill="#fffafe" d="M 141.5,450.5 C 143.167,451.5 144.5,452.833 145.5,454.5C 145.5,454.833 145.5,455.167 145.5,455.5C 134.5,466.167 123.5,476.833 112.5,487.5C 112.5,484.167 112.5,480.833 112.5,477.5C 121.886,468.111 131.553,459.111 141.5,450.5 Z"/></g>
<g><path style="opacity:1" fill="#fecff8" d="M 145.5,455.5 C 145.5,459.5 145.5,463.5 145.5,467.5C 136.5,476.167 127.5,484.833 118.5,493.5C 116.167,491.833 114.167,489.833 112.5,487.5C 123.5,476.833 134.5,466.167 145.5,455.5 Z"/></g>
<g><path style="opacity:1" fill="#f0f0f0" d="M 281.5,457.5 C 284.85,457.335 288.183,457.502 291.5,458C 293.192,459.401 293.859,461.234 293.5,463.5C 281.774,460.729 277.94,465.062 282,476.5C 284.381,477.435 286.881,477.768 289.5,477.5C 289.5,476.167 289.5,474.833 289.5,473.5C 288.167,473.5 286.833,473.5 285.5,473.5C 285.5,471.833 285.5,470.167 285.5,468.5C 288.833,468.5 292.167,468.5 295.5,468.5C 295.797,472.767 295.464,476.934 294.5,481C 282.678,485.927 275.678,482.26 273.5,470C 274.072,464.326 276.739,460.159 281.5,457.5 Z"/></g>
<g><path style="opacity:1" fill="#f3f3f3" d="M 305.5,457.5 C 319.18,456.854 324.347,463.187 321,476.5C 319.833,479 318,480.833 315.5,482C 302.222,483.719 296.722,477.886 299,464.5C 300.694,461.642 302.861,459.309 305.5,457.5 Z"/></g>
<g><path style="opacity:1" fill="#f7f7f7" d="M 331.5,457.5 C 334.167,457.5 336.833,457.5 339.5,457.5C 341.524,465.073 343.857,472.573 346.5,480C 345.056,482.034 343.056,482.868 340.5,482.5C 341.091,478.259 339.258,476.593 335,477.5C 331.14,477.071 329.306,478.738 329.5,482.5C 327.5,482.5 325.5,482.5 323.5,482.5C 325.879,474.075 328.546,465.741 331.5,457.5 Z"/></g>
<g><path style="opacity:1" fill="#f4f5f5" d="M 398.5,457.5 C 400.792,457.244 402.959,457.577 405,458.5C 406.268,463.637 407.934,468.637 410,473.5C 411.663,468.511 413.33,463.511 415,458.5C 417.139,457.231 419.305,457.231 421.5,458.5C 418.624,466.461 415.957,474.461 413.5,482.5C 410.881,482.768 408.381,482.435 406,481.5C 402.788,473.7 400.288,465.7 398.5,457.5 Z"/></g>
<g><path style="opacity:1" fill="#b0b2b6" d="M 733.5,457.5 C 737.362,457.833 738.195,459.499 736,462.5C 731.632,470.04 727.466,477.707 723.5,485.5C 721.833,486.833 720.167,486.833 718.5,485.5C 723.513,476.14 728.513,466.806 733.5,457.5 Z"/></g>
<g><path style="opacity:1" fill="#f8f8f8" d="M 350.5,457.5 C 352.5,457.5 354.5,457.5 356.5,457.5C 356.5,464.167 356.5,470.833 356.5,477.5C 359.167,477.5 361.833,477.5 364.5,477.5C 364.5,479.167 364.5,480.833 364.5,482.5C 359.833,482.5 355.167,482.5 350.5,482.5C 350.5,474.167 350.5,465.833 350.5,457.5 Z"/></g>
<g><path style="opacity:1" fill="#e8e8e8" d="M 384.5,457.5 C 386.833,457.5 389.167,457.5 391.5,457.5C 391.5,463.833 391.5,470.167 391.5,476.5C 393.857,476.337 396.19,476.503 398.5,477C 399.406,478.699 399.739,480.533 399.5,482.5C 394.5,482.5 389.5,482.5 384.5,482.5C 384.5,474.167 384.5,465.833 384.5,457.5 Z"/></g>
<g><path style="opacity:1" fill="#fefefe" d="M 424.5,457.5 C 426.5,457.5 428.5,457.5 430.5,457.5C 430.5,464.167 430.5,470.833 430.5,477.5C 433.167,477.5 435.833,477.5 438.5,477.5C 438.5,479.167 438.5,480.833 438.5,482.5C 433.833,482.5 429.167,482.5 424.5,482.5C 424.5,474.167 424.5,465.833 424.5,457.5 Z"/></g>
<g><path style="opacity:1" fill="#f2f2f3" d="M 452.5,457.5 C 455.941,457.301 459.274,457.801 462.5,459C 466.644,462.979 466.31,466.645 461.5,470C 466.028,472.824 466.695,476.49 463.5,481C 458.953,482.545 454.287,482.879 449.5,482C 448.24,480.186 448.24,478.353 449.5,476.5C 453.369,479.514 456.702,479.181 459.5,475.5C 459.392,474.558 459.059,473.725 458.5,473C 456.527,472.505 454.527,472.338 452.5,472.5C 452.5,470.833 452.5,469.167 452.5,467.5C 454.527,467.662 456.527,467.495 458.5,467C 460.166,463.869 459.166,462.369 455.5,462.5C 453.407,462.486 451.574,463.152 450,464.5C 448.916,461.341 449.75,459.008 452.5,457.5 Z"/></g>
<g><path style="opacity:1" fill="#a7a9ac" d="M 689.5,457.5 C 691.5,457.5 693.5,457.5 695.5,457.5C 695.5,465.833 695.5,474.167 695.5,482.5C 693.167,482.5 690.833,482.5 688.5,482.5C 688.829,476.463 688.496,470.463 687.5,464.5C 686.264,465.246 684.93,465.579 683.5,465.5C 683.215,463.712 683.548,462.045 684.5,460.5C 686.396,459.725 688.063,458.725 689.5,457.5 Z"/></g>
<g><path style="opacity:1" fill="#afb1b4" d="M 705.5,457.5 C 715.483,457.429 719.983,462.429 719,472.5C 717.185,482.294 711.685,485.127 702.5,481C 696.396,472.084 697.396,464.25 705.5,457.5 Z"/></g>
<g><path style="opacity:1" fill="#b7b9bc" d="M 743.5,458.5 C 745.833,458.5 748.167,458.5 750.5,458.5C 750.5,466.5 750.5,474.5 750.5,482.5C 748.5,482.5 746.5,482.5 744.5,482.5C 744.5,476.5 744.5,470.5 744.5,464.5C 743.07,464.421 741.736,464.754 740.5,465.5C 738.687,461.81 739.687,459.476 743.5,458.5 Z"/></g>
<g><path style="opacity:1" fill="#b4b6b9" d="M 763.5,458.5 C 765.833,458.5 768.167,458.5 770.5,458.5C 770.5,463.5 770.5,468.5 770.5,473.5C 771.833,473.5 773.167,473.5 774.5,473.5C 774.5,474.833 774.5,476.167 774.5,477.5C 773.167,477.5 771.833,477.5 770.5,477.5C 770.5,479.167 770.5,480.833 770.5,482.5C 768.833,482.5 767.167,482.5 765.5,482.5C 765.5,480.833 765.5,479.167 765.5,477.5C 761.5,477.5 757.5,477.5 753.5,477.5C 753.343,476.127 753.51,474.793 754,473.5C 757.677,468.81 760.844,463.81 763.5,458.5 Z"/></g>
<g><path style="opacity:1" fill="#aaacaf" d="M 785.5,457.5 C 788.85,457.335 792.183,457.502 795.5,458C 799.292,460.053 800.458,463.219 799,467.5C 797.366,468.99 797.699,470.324 800,471.5C 800.667,474.167 800.667,476.833 800,479.5C 799.097,480.701 797.931,481.535 796.5,482C 792.848,482.499 789.182,482.665 785.5,482.5C 785.5,474.167 785.5,465.833 785.5,457.5 Z"/></g>
<g><path style="opacity:1" fill="#aeb0b3" d="M 859.5,459.5 C 860.5,459.5 861.5,459.5 862.5,459.5C 862.5,461.5 862.5,463.5 862.5,465.5C 867.833,466.167 867.833,466.833 862.5,467.5C 862.335,471.182 862.501,474.848 863,478.5C 864.011,479.337 865.178,479.67 866.5,479.5C 866.5,480.5 866.5,481.5 866.5,482.5C 863.956,482.896 861.789,482.229 860,480.5C 859.969,475.812 859.136,471.312 857.5,467C 859.085,464.744 859.752,462.244 859.5,459.5 Z"/></g>
<g><path style="opacity:1" fill="#afb1b4" d="M 914.5,459.5 C 919.419,462.748 923.753,466.748 927.5,471.5C 924.136,475.699 920.302,479.365 916,482.5C 914.72,482.387 913.887,481.72 913.5,480.5C 916.368,477.468 919.035,474.302 921.5,471C 919.385,467.882 916.885,465.048 914,462.5C 913.53,461.423 913.697,460.423 914.5,459.5 Z"/></g>
<g><path style="opacity:1" fill="#35373c" d="M 789.5,460.5 C 794.983,459.807 796.983,461.974 795.5,467C 793.655,468.128 791.655,468.628 789.5,468.5C 789.5,465.833 789.5,463.167 789.5,460.5 Z"/></g>
<g><path style="opacity:1" fill="#35373c" d="M 307.5,462.5 C 310.365,462.055 312.865,462.722 315,464.5C 315.978,468.9 315.478,473.067 313.5,477C 309.881,479.241 307.048,478.408 305,474.5C 303.888,470.019 304.721,466.019 307.5,462.5 Z"/></g>
<g><path style="opacity:1" fill="#34363b" d="M 706.5,462.5 C 708.722,462.178 710.556,462.845 712,464.5C 712.667,468.5 712.667,472.5 712,476.5C 708.237,479.461 705.904,478.461 705,473.5C 704.116,469.567 704.616,465.901 706.5,462.5 Z"/></g>
<g><path style="opacity:1" fill="#414348" d="M 334.5,464.5 C 336.267,466.792 337.267,469.458 337.5,472.5C 335.833,472.5 334.167,472.5 332.5,472.5C 332.963,469.779 333.629,467.112 334.5,464.5 Z"/></g>
<g><path style="opacity:1" fill="#c6c6c8" d="M 367.5,464.5 C 369.5,464.5 371.5,464.5 373.5,464.5C 373.5,466.833 373.5,469.167 373.5,471.5C 371.5,471.5 369.5,471.5 367.5,471.5C 367.5,469.167 367.5,466.833 367.5,464.5 Z"/></g>
<g><path style="opacity:1" fill="#abadb0" d="M 809.5,464.5 C 818.688,464.878 821.854,469.544 819,478.5C 816.487,482.212 812.987,483.378 808.5,482C 806.667,481.5 805.5,480.333 805,478.5C 803.19,472.519 804.69,467.852 809.5,464.5 Z"/></g>
<g><path style="opacity:1" fill="#aeb0b3" d="M 826.5,465.5 C 838.587,464.707 841.92,469.874 836.5,481C 825.232,484.39 821.066,480.223 824,468.5C 825.045,467.627 825.878,466.627 826.5,465.5 Z"/></g>
<g><path style="opacity:1" fill="#adafb2" d="M 845.5,464.5 C 848.206,464.575 850.873,464.908 853.5,465.5C 853.5,466.5 853.5,467.5 853.5,468.5C 851.801,468.38 850.135,468.046 848.5,467.5C 845.025,468.286 844.692,469.786 847.5,472C 854.607,472.713 856.274,476.047 852.5,482C 849.5,482.667 846.5,482.667 843.5,482C 842.483,480.951 842.316,479.784 843,478.5C 846.248,481.259 849.082,481.093 851.5,478C 851.355,477.228 851.022,476.561 850.5,476C 842.116,474.81 840.45,470.977 845.5,464.5 Z"/></g>
<g><path style="opacity:1" fill="#aeb0b3" d="M 872.5,465.5 C 875.5,465.5 878.5,465.5 881.5,465.5C 881.5,466.5 881.5,467.5 881.5,468.5C 879.801,468.38 878.135,468.046 876.5,467.5C 873.025,468.286 872.692,469.786 875.5,472C 880.823,472.021 883.323,474.521 883,479.5C 879.743,482.428 875.909,483.262 871.5,482C 870.483,480.951 870.316,479.784 871,478.5C 874.248,481.259 877.082,481.093 879.5,478C 879.355,477.228 879.022,476.561 878.5,476C 870.928,475.318 868.928,471.818 872.5,465.5 Z"/></g>
<g><path style="opacity:1" fill="#393b40" d="M 764.5,464.5 C 765.477,467.287 765.81,470.287 765.5,473.5C 763.473,473.662 761.473,473.495 759.5,473C 761.556,470.386 763.223,467.553 764.5,464.5 Z"/></g>
<g><path style="opacity:1" fill="#fffbfe" d="M 145.5,467.5 C 145.5,470.833 145.5,474.167 145.5,477.5C 138.113,484.891 130.446,491.891 122.5,498.5C 121.167,496.833 119.833,495.167 118.5,493.5C 127.5,484.833 136.5,476.167 145.5,467.5 Z"/></g>
<g><path style="opacity:1" fill="#33353a" d="M 810.5,467.5 C 816.098,468.507 817.931,471.841 816,477.5C 811.229,481.787 808.396,480.62 807.5,474C 807.32,471.198 808.32,469.031 810.5,467.5 Z"/></g>
<g><path style="opacity:1" fill="#34363b" d="M 828.5,467.5 C 834.867,467.872 837.034,471.206 835,477.5C 832.333,481.5 829.667,481.5 827,477.5C 826.153,473.928 826.653,470.594 828.5,467.5 Z"/></g>
<g><path style="opacity:1" fill="#313338" d="M 789.5,471.5 C 791.857,471.337 794.19,471.503 796.5,472C 798.314,478.026 795.981,480.526 789.5,479.5C 789.5,476.833 789.5,474.167 789.5,471.5 Z"/></g>
<g><path style="opacity:1" fill="#f3f3f3" d="M 367.5,476.5 C 369.5,476.5 371.5,476.5 373.5,476.5C 373.5,478.5 373.5,480.5 373.5,482.5C 371.5,482.5 369.5,482.5 367.5,482.5C 367.5,480.5 367.5,478.5 367.5,476.5 Z"/></g>
<g><path style="opacity:1" fill="#fecef8" d="M 145.5,477.5 C 145.665,481.182 145.499,484.848 145,488.5C 139.631,494.036 134.131,499.37 128.5,504.5C 126.806,502.139 124.806,500.139 122.5,498.5C 130.446,491.891 138.113,484.891 145.5,477.5 Z"/></g>
<g><path style="opacity:1" fill="#e966d9" d="M 95.5,447.5 C 95.1673,463.181 95.5006,478.848 96.5,494.5C 101.085,492.305 105.751,490.305 110.5,488.5C 111.167,477.007 111.833,465.674 112.5,454.5C 112.5,462.167 112.5,469.833 112.5,477.5C 112.5,480.833 112.5,484.167 112.5,487.5C 114.167,489.833 116.167,491.833 118.5,493.5C 119.833,495.167 121.167,496.833 122.5,498.5C 124.806,500.139 126.806,502.139 128.5,504.5C 128.175,512.352 128.508,520.018 129.5,527.5C 129.103,528.525 128.437,528.692 127.5,528C 116.667,517.167 105.833,506.333 95,495.5C 94.1719,479.328 94.3386,463.328 95.5,447.5 Z"/></g>
<g><path style="opacity:1" fill="#0095d3" d="M 385.5,530.5 C 385.573,534.225 385.906,538.225 386.5,542.5C 349.832,542.667 313.165,542.5 276.5,542C 271.492,538.915 271.158,535.248 275.5,531C 312.165,530.5 348.832,530.333 385.5,530.5 Z"/></g>
<g><path style="opacity:1" fill="#1997d8" d="M 385.5,530.5 C 421.5,530.5 457.5,530.5 493.5,530.5C 493.393,532.379 493.893,532.712 495,531.5C 495.75,532.126 496.584,532.626 497.5,533C 496.09,533.368 495.09,534.201 494.5,535.5C 494.846,536.696 495.346,536.696 496,535.5C 496.556,537.885 496.39,540.218 495.5,542.5C 459.167,542.5 422.833,542.5 386.5,542.5C 385.906,538.225 385.573,534.225 385.5,530.5 Z"/></g>
<g><path style="opacity:1" fill="#3298dd" d="M 493.5,530.5 C 531.167,530.5 568.833,530.5 606.5,530.5C 605.086,532.138 605.42,533.472 607.5,534.5C 606.109,534.109 605.109,534.942 604.5,537C 607.167,537.667 607.167,538.333 604.5,539C 604.619,540.145 604.952,541.312 605.5,542.5C 568.833,542.5 532.167,542.5 495.5,542.5C 496.39,540.218 496.556,537.885 496,535.5C 495.346,536.696 494.846,536.696 494.5,535.5C 495.09,534.201 496.09,533.368 497.5,533C 496.584,532.626 495.75,532.126 495,531.5C 493.893,532.712 493.393,532.379 493.5,530.5 Z"/></g>
<g><path style="opacity:1" fill="#509ae2" d="M 606.5,530.5 C 666.238,530.171 725.905,530.504 785.5,531.5C 788.154,534.79 788.154,538.124 785.5,541.5C 725.571,542.496 665.571,542.829 605.5,542.5C 604.952,541.312 604.619,540.145 604.5,539C 607.167,538.333 607.167,537.667 604.5,537C 605.109,534.942 606.109,534.109 607.5,534.5C 605.42,533.472 605.086,532.138 606.5,530.5 Z"/></g>
<g><path style="opacity:1" fill="rgba(0,0,0,.45)" d="M 785.5,531.5 C 836.998,530.335 888.665,530.168 940.5,531C 944.738,533.172 945.572,536.338 943,540.5C 942.25,541.126 941.416,541.626 940.5,542C 888.665,542.832 836.998,542.665 785.5,541.5C 788.154,538.124 788.154,534.79 785.5,531.5 Z"/></g>
<g><path style="opacity:1" fill="rgba(0,0,0,.65)" d="M 251.5,566.5 C 486.5,566.5 721.5,566.5 956.5,566.5C 956.5,567.5 956.5,568.5 956.5,569.5C 721.5,569.5 486.5,569.5 251.5,569.5C 251.5,568.5 251.5,567.5 251.5,566.5 Z"/></g>
<g><path style="opacity:1" fill="#14171f" d="M 251.5,569.5 C 486.5,569.5 721.5,569.5 956.5,569.5C 956.667,625.168 956.5,680.834 956,736.5C 953.5,744.333 948.333,749.5 940.5,752C 710.834,752.5 481.167,752.667 251.5,752.5C 251.5,691.5 251.5,630.5 251.5,569.5 Z"/></g>
<g><path style="opacity:1" fill="#90fdac" d="M 114.5,576.5 C 163.916,572.801 195.749,594.468 210,641.5C 215.593,686.499 197.76,717.999 156.5,736C 118.346,747.372 86.8458,737.539 62,706.5C 39.5638,670.349 41.5638,635.683 68,602.5C 81.0033,589.251 96.5033,580.584 114.5,576.5 Z"/></g>
<g><path style="opacity:1" fill="#898d92" d="M 368.5,613.5 C 369.873,613.343 371.207,613.51 372.5,614C 374,616.167 375.5,618.333 377,620.5C 378.419,618.664 379.586,616.664 380.5,614.5C 382.765,613.353 385.098,613.186 387.5,614C 385.041,617.75 382.708,621.583 380.5,625.5C 383.338,629.642 385.671,633.976 387.5,638.5C 385.076,638.808 382.743,638.474 380.5,637.5C 379.42,635.004 378.086,632.67 376.5,630.5C 374.461,632.742 372.795,635.242 371.5,638C 369.5,638.667 367.5,638.667 365.5,638C 368.093,634.148 370.426,630.148 372.5,626C 370.633,622.435 368.633,618.935 366.5,615.5C 367.243,614.818 367.909,614.151 368.5,613.5 Z"/></g>
<g><path style="opacity:1" fill="#888c91" d="M 426.5,613.5 C 429.909,613.249 433.242,613.583 436.5,614.5C 437.452,616.045 437.785,617.712 437.5,619.5C 427.693,616.806 423.86,620.472 426,630.5C 429.278,633.797 433.111,634.464 437.5,632.5C 437.859,634.766 437.192,636.599 435.5,638C 423.287,640.123 417.787,634.956 419,622.5C 420.113,618.234 422.613,615.234 426.5,613.5 Z"/></g>
<g><path style="opacity:1" fill="#83878c" d="M 473.5,613.5 C 476.167,613.5 478.833,613.5 481.5,613.5C 483.864,621.426 486.531,629.26 489.5,637C 487.26,637.977 484.927,638.477 482.5,638.5C 483.091,634.259 481.258,632.593 477,633.5C 473.14,633.071 471.306,634.738 471.5,638.5C 469.5,638.5 467.5,638.5 465.5,638.5C 467.879,630.075 470.546,621.741 473.5,613.5 Z"/></g>
<g><path style="opacity:1" fill="#8c9095" d="M 324.5,613.5 C 331.167,613.5 337.833,613.5 344.5,613.5C 344.5,615.167 344.5,616.833 344.5,618.5C 342.167,618.5 339.833,618.5 337.5,618.5C 337.5,625.167 337.5,631.833 337.5,638.5C 335.5,638.5 333.5,638.5 331.5,638.5C 331.5,631.833 331.5,625.167 331.5,618.5C 329.167,618.5 326.833,618.5 324.5,618.5C 324.5,616.833 324.5,615.167 324.5,613.5 Z"/></g>
<g><path style="opacity:1" fill="#8a8e93" d="M 347.5,613.5 C 352.833,613.5 358.167,613.5 363.5,613.5C 363.5,615.167 363.5,616.833 363.5,618.5C 360.167,618.5 356.833,618.5 353.5,618.5C 353.5,620.167 353.5,621.833 353.5,623.5C 356.167,623.5 358.833,623.5 361.5,623.5C 361.5,625.167 361.5,626.833 361.5,628.5C 358.833,628.5 356.167,628.5 353.5,628.5C 353.5,630.167 353.5,631.833 353.5,633.5C 356.833,633.5 360.167,633.5 363.5,633.5C 363.5,635.167 363.5,636.833 363.5,638.5C 358.167,638.5 352.833,638.5 347.5,638.5C 347.5,630.167 347.5,621.833 347.5,613.5 Z"/></g>
<g><path style="opacity:1" fill="#84878c" d="M 388.5,613.5 C 395.2,613.17 401.866,613.503 408.5,614.5C 409.309,616.071 409.643,617.738 409.5,619.5C 407.167,619.5 404.833,619.5 402.5,619.5C 402.5,625.833 402.5,632.167 402.5,638.5C 400.167,638.5 397.833,638.5 395.5,638.5C 395.5,632.167 395.5,625.833 395.5,619.5C 393.167,619.5 390.833,619.5 388.5,619.5C 388.5,617.5 388.5,615.5 388.5,613.5 Z"/></g>
<g><path style="opacity:1" fill="#8b8f94" d="M 441.5,613.5 C 443.5,613.5 445.5,613.5 447.5,613.5C 447.5,616.5 447.5,619.5 447.5,622.5C 450.5,622.5 453.5,622.5 456.5,622.5C 456.5,619.5 456.5,616.5 456.5,613.5C 458.5,613.5 460.5,613.5 462.5,613.5C 462.5,621.833 462.5,630.167 462.5,638.5C 460.5,638.5 458.5,638.5 456.5,638.5C 456.5,635.167 456.5,631.833 456.5,628.5C 453.5,628.5 450.5,628.5 447.5,628.5C 447.5,631.833 447.5,635.167 447.5,638.5C 445.5,638.5 443.5,638.5 441.5,638.5C 441.5,630.167 441.5,621.833 441.5,613.5 Z"/></g>
<g><path style="opacity:1" fill="#898d92" d="M 492.5,613.5 C 494.527,613.338 496.527,613.505 498.5,614C 500.962,618.426 503.796,622.593 507,626.5C 507.499,622.179 507.666,617.846 507.5,613.5C 509.5,613.5 511.5,613.5 513.5,613.5C 513.5,621.833 513.5,630.167 513.5,638.5C 511.473,638.662 509.473,638.495 507.5,638C 504.456,633.412 501.29,628.912 498,624.5C 497.501,629.155 497.334,633.821 497.5,638.5C 495.833,638.5 494.167,638.5 492.5,638.5C 492.5,630.167 492.5,621.833 492.5,613.5 Z"/></g>
<g><path style="opacity:1" fill="#8a8e93" d="M 517.5,613.5 C 519.527,613.338 521.527,613.505 523.5,614C 526.457,618.08 529.29,622.247 532,626.5C 532.499,622.179 532.666,617.846 532.5,613.5C 534.5,613.5 536.5,613.5 538.5,613.5C 538.5,621.833 538.5,630.167 538.5,638.5C 536.396,638.799 534.396,638.466 532.5,637.5C 529.667,633.167 526.833,628.833 524,624.5C 523.501,629.155 523.334,633.821 523.5,638.5C 521.5,638.5 519.5,638.5 517.5,638.5C 517.5,630.167 517.5,621.833 517.5,613.5 Z"/></g>
<g><path style="opacity:1" fill="#888c91" d="M 542.5,613.5 C 547.833,613.5 553.167,613.5 558.5,613.5C 558.5,615.167 558.5,616.833 558.5,618.5C 555.167,618.5 551.833,618.5 548.5,618.5C 548.5,620.167 548.5,621.833 548.5,623.5C 551.167,623.5 553.833,623.5 556.5,623.5C 556.5,625.167 556.5,626.833 556.5,628.5C 554.167,628.5 551.833,628.5 549.5,628.5C 549.5,630.167 549.5,631.833 549.5,633.5C 552.5,633.5 555.5,633.5 558.5,633.5C 558.5,635.167 558.5,636.833 558.5,638.5C 553.167,638.5 547.833,638.5 542.5,638.5C 542.5,630.167 542.5,621.833 542.5,613.5 Z"/></g>
<g><path style="opacity:1" fill="#8c9095" d="M 562.5,613.5 C 564.5,613.5 566.5,613.5 568.5,613.5C 568.5,620.167 568.5,626.833 568.5,633.5C 571.167,633.5 573.833,633.5 576.5,633.5C 576.5,635.167 576.5,636.833 576.5,638.5C 571.833,638.5 567.167,638.5 562.5,638.5C 562.5,630.167 562.5,621.833 562.5,613.5 Z"/></g>
<g><path style="opacity:1" fill="#3545d5" d="M 182.5,636.5 C 182.44,637.043 182.107,637.376 181.5,637.5C 177.853,635.005 173.853,633.671 169.5,633.5C 171.96,634.891 174.626,636.058 177.5,637C 176.263,637.232 175.263,637.732 174.5,638.5C 171.641,638.801 170.307,640.467 170.5,643.5C 170.442,646.078 171.109,648.411 172.5,650.5C 166.697,646.231 161.031,641.065 155.5,635C 154.833,634.333 154.167,634.333 153.5,635C 159.703,641.035 165.703,647.202 171.5,653.5C 167.452,651.873 163.285,650.54 159,649.5C 154.944,649.931 152.111,651.931 150.5,655.5C 150.167,655.5 149.833,655.5 149.5,655.5C 149.389,650.941 148.389,646.608 146.5,642.5C 146.167,642.667 145.833,642.833 145.5,643C 146.739,646.364 147.406,649.864 147.5,653.5C 144.341,650.418 140.675,648.084 136.5,646.5C 139.097,638.384 139.097,630.217 136.5,622C 136.585,620.893 136.919,619.893 137.5,619C 153.804,621.381 168.804,627.214 182.5,636.5 Z"/></g>
<g><path style="opacity:1" fill="#7b7e83" d="M 291.5,621.5 C 294.412,623.066 297.079,625.066 299.5,627.5C 301.833,625.5 304.167,623.5 306.5,621.5C 307.5,621.833 308.167,622.5 308.5,623.5C 305.833,626.833 302.833,629.833 299.5,632.5C 296.516,630.016 293.682,627.35 291,624.5C 290.53,623.423 290.697,622.423 291.5,621.5 Z"/></g>
<g><path style="opacity:1" fill="#121439" d="M 169.5,633.5 C 165.526,633.231 161.86,632.064 158.5,630C 162.541,630.07 166.208,631.236 169.5,633.5 Z"/></g>
<g><path style="opacity:1" fill="#151a41" d="M 172.5,650.5 C 173.715,651.779 173.382,652.779 171.5,653.5C 165.703,647.202 159.703,641.035 153.5,635C 154.167,634.333 154.833,634.333 155.5,635C 161.031,641.065 166.697,646.231 172.5,650.5 Z"/></g>
<g><path style="opacity:1" fill="#1d2452" d="M 169.5,633.5 C 173.853,633.671 177.853,635.005 181.5,637.5C 182.107,637.376 182.44,637.043 182.5,636.5C 184.332,637.14 184.665,638.14 183.5,639.5C 180.579,638.593 177.579,638.26 174.5,638.5C 175.263,637.732 176.263,637.232 177.5,637C 174.626,636.058 171.96,634.891 169.5,633.5 Z"/></g>
<g><path style="opacity:1" fill="#3343d2" d="M 106.5,653.5 C 105.696,656.442 104.362,659.109 102.5,661.5C 101.496,660.317 100.662,658.984 100,657.5C 99.3457,656.304 98.8457,656.304 98.5,657.5C 99.5005,659.813 100.834,661.813 102.5,663.5C 101.953,665.485 100.953,667.151 99.5,668.5C 95.7921,669.887 93.4588,672.554 92.5,676.5C 91.0569,669.383 90.2236,662.049 90,654.5C 89.8279,661.013 89.3279,667.347 88.5,673.5C 85.3588,667.805 81.3588,667.139 76.5,671.5C 76.4208,670.07 76.7542,668.736 77.5,667.5C 76.7997,667.213 76.1331,666.88 75.5,666.5C 78.2636,655.633 83.597,646.299 91.5,638.5C 95.0348,641.236 97.8682,644.569 100,648.5C 102.287,650.054 104.454,651.721 106.5,653.5 Z"/></g>
<g><path style="opacity:1" fill="#8cd5fb" d="M 136.5,646.5 C 140.675,648.084 144.341,650.418 147.5,653.5C 147.833,654.5 148.5,655.167 149.5,655.5C 149.833,655.5 150.167,655.5 150.5,655.5C 157.502,670.331 154.835,683.164 142.5,694C 134.166,699.074 125.499,699.741 116.5,696C 114.382,694.951 112.716,693.451 111.5,691.5C 112.962,690.542 114.295,689.376 115.5,688C 122.518,687.669 129.518,687.669 136.5,688C 150.806,681.422 154.639,670.922 148,656.5C 138.458,649.122 129.791,650.122 122,659.5C 119.611,664.554 116.445,669.054 112.5,673C 109.584,674.818 106.584,674.984 103.5,673.5C 102.515,671.494 101.182,669.827 99.5,668.5C 100.953,667.151 101.953,665.485 102.5,663.5C 102.5,662.833 102.5,662.167 102.5,661.5C 104.362,659.109 105.696,656.442 106.5,653.5C 110.775,650.42 115.442,647.92 120.5,646C 125.871,645.324 131.204,645.491 136.5,646.5 Z"/></g>
<g><path style="opacity:1" fill="#171b4a" d="M 149.5,655.5 C 148.5,655.167 147.833,654.5 147.5,653.5C 147.406,649.864 146.739,646.364 145.5,643C 145.833,642.833 146.167,642.667 146.5,642.5C 148.389,646.608 149.389,650.941 149.5,655.5 Z"/></g>
<g><path style="opacity:1" fill="#8ec7ea" d="M 112.5,688.5 C 112.859,686.629 113.859,685.129 115.5,684C 118.393,682.851 121.393,682.351 124.5,682.5C 127.786,683.207 131.119,683.54 134.5,683.5C 134.192,681.076 134.526,678.743 135.5,676.5C 138.013,682.724 141.18,683.057 145,677.5C 147.343,672.398 148.01,667.064 147,661.5C 142.695,654.303 136.862,652.803 129.5,657C 127.963,658.11 127.297,659.61 127.5,661.5C 124.471,661.182 122.805,662.849 122.5,666.5C 121.599,667.29 120.932,668.29 120.5,669.5C 119.636,670.688 118.636,671.855 117.5,673C 118.747,674.494 118.747,675.994 117.5,677.5C 116.784,676.689 115.95,676.022 115,675.5C 113.234,676.233 111.401,676.567 109.5,676.5C 115.896,672.924 120.396,667.591 123,660.5C 132.817,649.171 141.483,649.838 149,662.5C 151.138,676.269 145.472,684.269 132,686.5C 126.842,685.7 121.675,685.533 116.5,686C 115.016,686.662 113.683,687.496 112.5,688.5 Z"/></g>
<g><path style="opacity:1" fill="#030404" d="M 124.5,682.5 C 125.337,677.364 124.003,673.031 120.5,669.5C 120.932,668.29 121.599,667.29 122.5,666.5C 124.461,668.963 126.628,671.297 129,673.5C 129.156,669.445 128.656,665.445 127.5,661.5C 127.297,659.61 127.963,658.11 129.5,657C 136.862,652.803 142.695,654.303 147,661.5C 148.01,667.064 147.343,672.398 145,677.5C 141.18,683.057 138.013,682.724 135.5,676.5C 134.526,678.743 134.192,681.076 134.5,683.5C 131.119,683.54 127.786,683.207 124.5,682.5 Z"/></g>
<g><path style="opacity:1" fill="#111333" d="M 84.5,653.5 C 85.0431,653.56 85.3764,653.893 85.5,654.5C 83.1365,657.699 80.9698,661.032 79,664.5C 79.7342,660.365 81.5675,656.698 84.5,653.5 Z"/></g>
<g><path style="opacity:1" fill="#101233" d="M 102.5,661.5 C 102.5,662.167 102.5,662.833 102.5,663.5C 100.834,661.813 99.5005,659.813 98.5,657.5C 98.8457,656.304 99.3457,656.304 100,657.5C 100.662,658.984 101.496,660.317 102.5,661.5 Z"/></g>
<g><path style="opacity:1" fill="#181c48" d="M 92.5,676.5 C 91.791,677.404 90.791,677.737 89.5,677.5C 89.5674,676.041 89.2341,674.708 88.5,673.5C 89.3279,667.347 89.8279,661.013 90,654.5C 90.2236,662.049 91.0569,669.383 92.5,676.5 Z"/></g>
<g><path style="opacity:1" fill="#222c5e" d="M 75.5,666.5 C 76.1331,666.88 76.7997,667.213 77.5,667.5C 76.7542,668.736 76.4208,670.07 76.5,671.5C 75.8783,672.627 75.045,673.627 74,674.5C 73.2971,671.518 73.7971,668.851 75.5,666.5 Z"/></g>
<g><path style="opacity:1" fill="#d964af" d="M 111.5,691.5 C 111.263,690.209 111.596,689.209 112.5,688.5C 113.683,687.496 115.016,686.662 116.5,686C 121.675,685.533 126.842,685.7 132,686.5C 145.472,684.269 151.138,676.269 149,662.5C 141.483,649.838 132.817,649.171 123,660.5C 120.396,667.591 115.896,672.924 109.5,676.5C 106.911,676.539 104.911,675.539 103.5,673.5C 106.584,674.984 109.584,674.818 112.5,673C 116.445,669.054 119.611,664.554 122,659.5C 129.791,650.122 138.458,649.122 148,656.5C 154.639,670.922 150.806,681.422 136.5,688C 129.518,687.669 122.518,687.669 115.5,688C 114.295,689.376 112.962,690.542 111.5,691.5 Z"/></g>
<g><path style="opacity:1" fill="#e5e7e7" d="M 127.5,661.5 C 128.656,665.445 129.156,669.445 129,673.5C 126.628,671.297 124.461,668.963 122.5,666.5C 122.805,662.849 124.471,661.182 127.5,661.5 Z"/></g>
<g><path style="opacity:1" fill="#6a6e75" d="M 345.5,693.5 C 347.635,693.147 348.968,693.98 349.5,696C 348.678,698.434 348.344,700.934 348.5,703.5C 353.5,703.5 358.5,703.5 363.5,703.5C 363.351,700.393 363.851,697.393 365,694.5C 367.167,693 368.667,693.5 369.5,696C 368.678,698.434 368.344,700.934 368.5,703.5C 371.187,703.336 373.854,703.503 376.5,704C 377.554,705.388 377.72,706.888 377,708.5C 373.606,709.456 370.106,709.789 366.5,709.5C 366.205,713.898 365.538,718.231 364.5,722.5C 367.428,723.484 370.428,723.817 373.5,723.5C 373.5,725.5 373.5,727.5 373.5,729.5C 370.102,729.18 366.768,729.513 363.5,730.5C 362.607,733.084 362.274,735.751 362.5,738.5C 360.833,738.5 359.167,738.5 357.5,738.5C 357.5,735.5 357.5,732.5 357.5,729.5C 352.786,729.173 348.12,729.507 343.5,730.5C 342.607,733.084 342.274,735.751 342.5,738.5C 340.833,738.5 339.167,738.5 337.5,738.5C 337.5,735.5 337.5,732.5 337.5,729.5C 334.813,729.664 332.146,729.497 329.5,729C 328.167,727.333 328.167,725.667 329.5,724C 332.882,723.824 336.215,723.324 339.5,722.5C 340.538,718.231 341.205,713.898 341.5,709.5C 338.813,709.664 336.146,709.497 333.5,709C 332.446,707.612 332.28,706.112 333,704.5C 336.394,703.544 339.894,703.211 343.5,703.5C 343.311,699.963 343.977,696.63 345.5,693.5 Z"/></g>
<g><path style="opacity:1" fill="#8d9296" d="M 548.5,700.5 C 549.833,700.5 551.167,700.5 552.5,700.5C 552.5,711.833 552.5,723.167 552.5,734.5C 551.167,734.5 549.833,734.5 548.5,734.5C 548.5,723.167 548.5,711.833 548.5,700.5 Z"/></g>
<g><path style="opacity:1" fill="#303237" d="M 346.5,709.5 C 351.5,709.5 356.5,709.5 361.5,709.5C 361.205,713.898 360.538,718.231 359.5,722.5C 354.5,723.833 349.5,723.833 344.5,722.5C 345.538,718.231 346.205,713.898 346.5,709.5 Z"/></g>
<g><path style="opacity:1" fill="#868a8f" d="M 414.5,711.5 C 419.559,712.098 424.559,712.098 429.5,711.5C 430.429,712.689 430.762,714.022 430.5,715.5C 429.127,715.343 427.793,715.51 426.5,716C 427.962,723.711 424.629,727.211 416.5,726.5C 416.5,727.5 416.5,728.5 416.5,729.5C 420.697,729.739 424.697,730.739 428.5,732.5C 431.134,737.744 429.467,741.244 423.5,743C 417.969,744.358 413.135,743.191 409,739.5C 407.824,735.74 408.99,732.907 412.5,731C 411.14,729.062 411.473,727.396 413.5,726C 408.003,720.683 408.336,715.85 414.5,711.5 Z"/></g>
<g><path style="opacity:1" fill="#898d92" d="M 439.5,711.5 C 448.802,710.137 453.469,714.137 453.5,723.5C 448.167,723.5 442.833,723.5 437.5,723.5C 439.651,732.181 444.484,733.848 452,728.5C 452.72,730.112 452.554,731.612 451.5,733C 437.565,737.068 431.732,731.901 434,717.5C 435.36,714.977 437.193,712.977 439.5,711.5 Z"/></g>
<g><path style="opacity:1" fill="#85898e" d="M 458.5,711.5 C 459.833,711.5 461.167,711.5 462.5,711.5C 462.351,712.552 462.517,713.552 463,714.5C 467.737,710.568 472.404,710.568 477,714.5C 477.5,721.158 477.666,727.825 477.5,734.5C 475.833,734.5 474.167,734.5 472.5,734.5C 472.5,728.167 472.5,721.833 472.5,715.5C 468.808,714.971 465.642,715.971 463,718.5C 462.501,723.823 462.334,729.156 462.5,734.5C 461.167,734.5 459.833,734.5 458.5,734.5C 458.5,726.833 458.5,719.167 458.5,711.5 Z"/></g>
<g><path style="opacity:1" fill="#888c91" d="M 488.5,711.5 C 497.85,710.19 502.517,714.19 502.5,723.5C 497.5,723.5 492.5,723.5 487.5,723.5C 487.32,729.82 490.32,732.32 496.5,731C 498.167,730.167 499.833,729.333 501.5,728.5C 502.792,731.411 501.792,733.244 498.5,734C 486.109,736.276 480.942,731.109 483,718.5C 483.967,715.379 485.8,713.046 488.5,711.5 Z"/></g>
<g><path style="opacity:1" fill="#83878c" d="M 507.5,711.5 C 508.833,711.5 510.167,711.5 511.5,711.5C 511.442,715.701 512.442,716.201 514.5,713C 516.345,711.872 518.345,711.372 520.5,711.5C 520.5,712.833 520.5,714.167 520.5,715.5C 517.383,715.642 514.883,716.976 513,719.5C 512.501,724.489 512.334,729.489 512.5,734.5C 510.833,734.5 509.167,734.5 507.5,734.5C 507.5,726.833 507.5,719.167 507.5,711.5 Z"/></g>
<g><path style="opacity:1" fill="#888c91" d="M 526.5,711.5 C 530.514,711.334 534.514,711.501 538.5,712C 539.333,712.833 540.167,713.667 541,714.5C 541.5,721.158 541.666,727.825 541.5,734.5C 539.508,734.672 537.842,734.005 536.5,732.5C 533.038,734.391 529.372,734.891 525.5,734C 521.244,729.615 521.577,725.615 526.5,722C 530.014,720.438 533.681,719.605 537.5,719.5C 537.863,717.089 536.863,715.589 534.5,715C 531.032,714.566 527.698,715.066 524.5,716.5C 524.365,714.446 525.032,712.779 526.5,711.5 Z"/></g>
<g><path style="opacity:1" fill="#323439" d="M 416.5,714.5 C 423.486,714.331 425.153,717.164 421.5,723C 414.237,723.821 412.571,720.988 416.5,714.5 Z"/></g>
<g><path style="opacity:1" fill="#383a3f" d="M 440.5,714.5 C 445.451,713.629 448.118,715.629 448.5,720.5C 444.774,720.823 441.107,720.489 437.5,719.5C 438.26,717.64 439.26,715.973 440.5,714.5 Z"/></g>
<g><path style="opacity:1" fill="#36383d" d="M 490.5,714.5 C 494.703,713.702 497.37,715.369 498.5,719.5C 494.893,720.489 491.226,720.823 487.5,720.5C 487.615,718.053 488.615,716.053 490.5,714.5 Z"/></g>
<g><path style="opacity:1" fill="#35373c" d="M 534.5,722.5 C 535.5,722.5 536.5,722.5 537.5,722.5C 538.088,729.751 534.921,732.417 528,730.5C 527.75,725.913 529.917,723.246 534.5,722.5 Z"/></g>
<g><path style="opacity:1" fill="#35383d" d="M 414.5,733.5 C 417.518,733.335 420.518,733.502 423.5,734C 427.395,736.301 427.062,738.301 422.5,740C 420.167,740.667 417.833,740.667 415.5,740C 411.9,738.359 411.566,736.193 414.5,733.5 Z"/></g>
</svg>